<svg width="16" height="16" viewBox="0 0 16 16" fill="none" xmlns="http://www.w3.org/2000/svg">
<mask id="mask0_702_4006" style="mask-type:alpha" maskUnits="userSpaceOnUse" x="0" y="0" width="16" height="16">
<circle cx="8" cy="8" r="8" fill="#D9D9D9"/>
</mask>
<g mask="url(#mask0_702_4006)">
<path d="M16.0009 0H-1.22987C-1.35602 0 -1.48033 0.00923082 -1.60156 0.0276924L-1.60402 1.10708L-3.28402 1.10462C-3.54125 1.49354 -3.69141 1.96 -3.69141 2.46154V13.5385C-3.69141 14.8978 -2.58925 16 -1.22987 16H16.0009C17.3603 16 18.4624 14.8978 18.4624 13.5385V2.46154C18.4624 1.10215 17.3603 0 16.0009 0Z" fill="#00247D"/>
<path d="M1.8461 12.9378L1.0941 13.6326L1.16856 12.6111L0.15625 12.4566L1.00117 11.8781L0.491019 10.9901L1.4701 11.2904L1.8461 10.3372L2.22271 11.2904L3.20179 10.9901L2.69102 11.8781L3.53656 12.4566L2.52425 12.6111L2.59871 13.6326L1.8461 12.9378ZM13.5076 2.80798L13.0159 3.26214L13.0646 2.59383L12.4018 2.49291L12.955 2.11445L12.6215 1.53352L13.2615 1.72983L13.5076 1.10645L13.7544 1.72983L14.395 1.53352L14.0609 2.11445L14.6135 2.49291L13.9513 2.59383L13.9999 3.26214L13.5076 2.80798ZM11.0461 6.50029L10.5544 6.95506L10.603 6.28675L9.94025 6.18583L10.4935 5.80675L10.1599 5.22583L10.7999 5.42214L11.0461 4.79875L11.2929 5.42214L11.9335 5.22583L11.5993 5.80675L12.1519 6.18583L11.4898 6.28675L11.5384 6.95506L11.0461 6.50029ZM16.5846 5.26952L16.0929 5.72429L16.1415 5.05598L15.4787 4.95506L16.0319 4.57598L15.6984 3.99506L16.3384 4.19137L16.5846 3.56798L16.8313 4.19137L17.4719 3.99506L17.1378 4.57598L17.6904 4.95506L17.0283 5.05598L17.0769 5.72429L16.5846 5.26952ZM13.5076 13.8849L13.0159 14.3397L13.0646 13.6714L12.4018 13.5704L12.955 13.1914L12.6215 12.6104L13.2615 12.8068L13.5076 12.1834L13.7544 12.8068L14.395 12.6104L14.0609 13.1914L14.6135 13.5704L13.9513 13.6714L13.9999 14.3397L13.5076 13.8849ZM15.3846 6.76983L15.5655 7.1366L15.9698 7.19506L15.6775 7.47998L15.7464 7.88306L15.3846 7.69291L15.0227 7.88306L15.0916 7.47998L14.7993 7.19506L15.2036 7.1366L15.3846 6.76983Z" fill="white"/>
<path d="M8.0009 8V0H-1.22987C-1.42679 0 -1.60156 0.0276924 -1.60156 0.0276924L-1.60402 1.10708L-3.28402 1.10462C-3.28402 1.10462 -3.30987 1.14092 -3.36218 1.23077C-3.57141 1.59323 -3.69141 2.01354 -3.69141 2.46154V8H8.0009Z" fill="#00247D"/>
<path d="M8.0009 0H6.56644L3.69321 2.01169V0H0.616286V1.58092L-1.60156 0.0276924C-1.97941 0.0855385 -2.33387 0.227692 -2.63048 0.436923L0.263055 2.46154H-0.805253L-3.09633 0.856C-3.16402 0.935385 -3.22618 1.01723 -3.28402 1.10462L-1.34494 2.46154H-3.69141V5.53846H-1.30064L-3.69141 7.24062V8H-1.64094L0.616286 6.41969V8H3.69321V5.98831L6.56582 8H8.0009V6.75138L6.26859 5.53846H8.0009V2.46154H6.26921L8.0009 1.24862V0Z" fill="#EEEEEE"/>
<path d="M3.07782 0H1.23167V3.07692H-3.69141V4.92308H1.23167V8H3.07782V4.92308H8.0009V3.07692H3.07782V0Z" fill="#CF1B2B"/>
<path d="M8.00233 0H7.10326L3.69464 2.38708V2.46154H4.66141L8.00233 0.121846V0ZM-2.62905 0.436923C-2.80197 0.556923 -2.95767 0.697231 -3.0949 0.856L-0.80382 2.46154H0.263873L-2.62905 0.436923ZM0.271257 5.53846L-3.23828 8H-2.17551L0.617719 6.04431V5.53846H0.271257ZM8.00233 7.87815V7.12739L5.73341 5.53846H4.6608L8.00233 7.87815Z" fill="#CF1B2B"/>
</g>
<path opacity="0.4" d="M8 16C12.4183 16 16 12.4183 16 8C16 3.58172 12.4183 0 8 0C3.58172 0 0 3.58172 0 8C0 12.4183 3.58172 16 8 16Z" fill="url(#paint0_radial_702_4006)"/>
<path d="M3.03906 4.31996C3.03906 2.46396 5.2597 0.959961 7.99874 0.959961C10.7381 0.959961 12.9589 2.46396 12.9589 4.31996C12.9589 6.17564 10.7381 7.67996 7.99874 7.67996C5.2597 7.67996 3.03906 6.17564 3.03906 4.31996Z" fill="url(#paint1_linear_702_4006)"/>
<path d="M7.99796 12.0647C11.1802 12.0647 13.7581 11.0122 13.7581 12.6244C13.7581 14.2365 11.1802 16.0001 7.99796 16.0001C4.81684 16.0001 2.23828 14.2367 2.23828 12.6244C2.23828 11.0119 4.81684 12.0647 7.99796 12.0647Z" fill="url(#paint2_linear_702_4006)"/>
<defs>
<radialGradient id="paint0_radial_702_4006" cx="0" cy="0" r="1" gradientUnits="userSpaceOnUse" gradientTransform="translate(8 8) rotate(180) scale(7.99998)">
<stop offset="0.6" stop-color="white" stop-opacity="0"/>
<stop offset="1" stop-opacity="0.5"/>
</radialGradient>
<linearGradient id="paint1_linear_702_4006" x1="7.99894" y1="7.67996" x2="7.99894" y2="0.959961" gradientUnits="userSpaceOnUse">
<stop stop-color="white" stop-opacity="0"/>
<stop offset="1" stop-color="white" stop-opacity="0.4"/>
</linearGradient>
<linearGradient id="paint2_linear_702_4006" x1="7.99821" y1="16" x2="7.99821" y2="11.727" gradientUnits="userSpaceOnUse">
<stop stop-color="white" stop-opacity="0.35"/>
<stop offset="0.85" stop-color="white" stop-opacity="0"/>
</linearGradient>
</defs>
</svg>
