<svg width="16" height="16" viewBox="0 0 16 16" fill="none" xmlns="http://www.w3.org/2000/svg">
<g clip-path="url(#clip0_43_170)">
<path d="M8 16C12.4183 16 16 12.4183 16 8C16 3.58172 12.4183 0 8 0C3.58172 0 0 3.58172 0 8C0 12.4183 3.58172 16 8 16Z" fill="#00C85F"/>
<path d="M7.69421 3.24672L0.896273 7.77869C0.732492 7.88791 0.732492 8.12857 0.896273 8.23776L7.69421 12.7697C7.87952 12.8933 8.12096 12.8933 8.30627 12.7697L15.1042 8.23776C15.268 8.12854 15.268 7.88788 15.1042 7.77869L8.30627 3.24672C8.12096 3.12316 7.87952 3.12316 7.69421 3.24672Z" fill="#FFF046"/>
<path d="M7.9998 11.3104C9.82805 11.3104 11.3101 9.82829 11.3101 8.00004C11.3101 6.17179 9.82805 4.6897 7.9998 4.6897C6.17154 4.6897 4.68945 6.17179 4.68945 8.00004C4.68945 9.82829 6.17154 11.3104 7.9998 11.3104Z" fill="#4B82E1"/>
<path d="M5.17212 6.28514C5.06369 6.46355 4.97203 6.65267 4.89844 6.85111C6.43609 6.74658 8.90363 7.02045 11.0704 9.2327C11.1477 9.04049 11.208 8.83989 11.2483 8.6318C9.12775 6.59814 6.77284 6.23295 5.17212 6.28514Z" fill="white"/>
</g>
<defs>
<clipPath id="clip0_43_170">
<rect width="16" height="16" fill="white"/>
</clipPath>
</defs>
</svg>
