<svg width="16" height="16" viewBox="0 0 16 16" fill="none" xmlns="http://www.w3.org/2000/svg">
<mask id="mask0_702_3992" style="mask-type:alpha" maskUnits="userSpaceOnUse" x="0" y="0" width="16" height="16">
<circle cx="8" cy="8" r="8" fill="#D9D9D9"/>
</mask>
<g mask="url(#mask0_702_3992)">
<path fill-rule="evenodd" clip-rule="evenodd" d="M0 16H4.03373V0H0V16ZM12.0114 16H16V0H12.0114V16Z" fill="#DB1F26"/>
<path d="M12 0H4V16H12V0Z" fill="white"/>
<path fill-rule="evenodd" clip-rule="evenodd" d="M7.80001 9.50106V10.9989H8.09721V9.4563L9.66939 9.76184L9.47384 9.28117L10.9989 8.0218L10.5806 7.9547L10.8504 7.04554L9.96663 7.1946L9.76703 6.76238L8.95772 7.47776L9.2039 5.80478L8.63687 6.02094L7.9721 5L7.33463 6.06563L6.69336 5.73779L7.01399 7.47776L6.15363 6.69532L6.07935 7.17226L5.17205 7.00085L5.46542 7.86898L5 8.0218L6.47433 9.19549L6.25144 9.67243L7.80001 9.50106Z" fill="#DB1F26"/>
</g>
<path opacity="0.4" d="M8 16C12.4183 16 16 12.4183 16 8C16 3.58172 12.4183 0 8 0C3.58172 0 0 3.58172 0 8C0 12.4183 3.58172 16 8 16Z" fill="url(#paint0_radial_702_3992)"/>
<path d="M3.03906 4.31996C3.03906 2.46396 5.2597 0.959961 7.99874 0.959961C10.7381 0.959961 12.9589 2.46396 12.9589 4.31996C12.9589 6.17564 10.7381 7.67996 7.99874 7.67996C5.2597 7.67996 3.03906 6.17564 3.03906 4.31996Z" fill="url(#paint1_linear_702_3992)"/>
<path d="M7.99796 12.0647C11.1802 12.0647 13.7581 11.0122 13.7581 12.6244C13.7581 14.2365 11.1802 16.0001 7.99796 16.0001C4.81684 16.0001 2.23828 14.2367 2.23828 12.6244C2.23828 11.0119 4.81684 12.0647 7.99796 12.0647Z" fill="url(#paint2_linear_702_3992)"/>
<defs>
<radialGradient id="paint0_radial_702_3992" cx="0" cy="0" r="1" gradientUnits="userSpaceOnUse" gradientTransform="translate(8 8) rotate(180) scale(7.99998)">
<stop offset="0.6" stop-color="white" stop-opacity="0"/>
<stop offset="1" stop-opacity="0.5"/>
</radialGradient>
<linearGradient id="paint1_linear_702_3992" x1="7.99894" y1="7.67996" x2="7.99894" y2="0.959961" gradientUnits="userSpaceOnUse">
<stop stop-color="white" stop-opacity="0"/>
<stop offset="1" stop-color="white" stop-opacity="0.4"/>
</linearGradient>
<linearGradient id="paint2_linear_702_3992" x1="7.99821" y1="16" x2="7.99821" y2="11.727" gradientUnits="userSpaceOnUse">
<stop stop-color="white" stop-opacity="0.35"/>
<stop offset="0.85" stop-color="white" stop-opacity="0"/>
</linearGradient>
</defs>
</svg>
