<svg width="16" height="16" viewBox="0 0 16 16" fill="none" xmlns="http://www.w3.org/2000/svg">
<mask id="mask0_702_3921" style="mask-type:alpha" maskUnits="userSpaceOnUse" x="0" y="0" width="16" height="16">
<circle cx="8" cy="8" r="8" fill="#D9D9D9"/>
</mask>
<g mask="url(#mask0_702_3921)">
<path d="M-3.07812 13.5387C-3.07812 14.8981 -1.97597 16.0002 -0.616586 16.0002H16.6142C17.9736 16.0002 19.0757 14.8981 19.0757 13.5387V11.0771H-3.07812V13.5387Z" fill="#FFCD05"/>
<path d="M-3.07812 5.53857H19.0757V11.077H-3.07812V5.53857Z" fill="#ED1F24"/>
<path d="M16.6142 0H-0.616586C-1.97597 0 -3.07812 1.10215 -3.07812 2.46154V5.53846H19.0757V2.46154C19.0757 1.10215 17.9736 0 16.6142 0Z" fill="#141414"/>
</g>
<path opacity="0.4" d="M8 16C12.4183 16 16 12.4183 16 8C16 3.58172 12.4183 0 8 0C3.58172 0 0 3.58172 0 8C0 12.4183 3.58172 16 8 16Z" fill="url(#paint0_radial_702_3921)"/>
<path d="M3.03906 4.31996C3.03906 2.46396 5.2597 0.959961 7.99874 0.959961C10.7381 0.959961 12.9589 2.46396 12.9589 4.31996C12.9589 6.17564 10.7381 7.67996 7.99874 7.67996C5.2597 7.67996 3.03906 6.17564 3.03906 4.31996Z" fill="url(#paint1_linear_702_3921)"/>
<path d="M7.99796 12.0647C11.1802 12.0647 13.7581 11.0122 13.7581 12.6244C13.7581 14.2365 11.1802 16.0001 7.99796 16.0001C4.81684 16.0001 2.23828 14.2367 2.23828 12.6244C2.23828 11.0119 4.81684 12.0647 7.99796 12.0647Z" fill="url(#paint2_linear_702_3921)"/>
<defs>
<radialGradient id="paint0_radial_702_3921" cx="0" cy="0" r="1" gradientUnits="userSpaceOnUse" gradientTransform="translate(8 8) rotate(180) scale(7.99998)">
<stop offset="0.6" stop-color="white" stop-opacity="0"/>
<stop offset="1" stop-opacity="0.5"/>
</radialGradient>
<linearGradient id="paint1_linear_702_3921" x1="7.99894" y1="7.67996" x2="7.99894" y2="0.959961" gradientUnits="userSpaceOnUse">
<stop stop-color="white" stop-opacity="0"/>
<stop offset="1" stop-color="white" stop-opacity="0.4"/>
</linearGradient>
<linearGradient id="paint2_linear_702_3921" x1="7.99821" y1="16" x2="7.99821" y2="11.727" gradientUnits="userSpaceOnUse">
<stop stop-color="white" stop-opacity="0.35"/>
<stop offset="0.85" stop-color="white" stop-opacity="0"/>
</linearGradient>
</defs>
</svg>
