<svg width="16" height="16" viewBox="0 0 16 16" fill="none" xmlns="http://www.w3.org/2000/svg">
<path d="M14.6519 3.55566H1.34791C0.981031 4.10398 0.680711 4.70062 0.457031 5.33342H15.5433C15.3193 4.70062 15.0191 4.10398 14.6519 3.55566Z" fill="#CC0001"/>
<path d="M15.5428 5.3335H0.456525C0.256525 5.89958 0.117965 6.49478 0.0498047 7.11126H15.9493C15.8812 6.49478 15.7428 5.89974 15.5428 5.3335Z" fill="white"/>
<path d="M8.00003 0C6.09555 0 4.34739 0.66672 2.97363 1.77776H13.0264C11.6527 0.66672 9.90435 0 8.00003 0Z" fill="#CC0001"/>
<path d="M13.0262 1.77783H2.97342C2.3467 2.28487 1.79758 2.88391 1.34766 3.55559H14.6517C14.2021 2.88391 13.6529 2.28487 13.0262 1.77783Z" fill="white"/>
<path d="M16 7.9998C16 7.69916 15.9819 7.403 15.9498 7.11084H0.05024C0.01808 7.403 0 7.69916 0 7.9998C0 8.30044 0.01808 8.5966 0.05024 8.88892H15.9498C15.9819 8.5966 16 8.30044 16 7.9998Z" fill="#CC0001"/>
<path d="M15.9493 8.88916H0.0498047C0.117965 9.5058 0.256525 10.1005 0.456525 10.6668H15.5428C15.7428 10.1005 15.8812 9.50532 15.9493 8.88916Z" fill="white"/>
<path d="M15.5433 10.6665H0.457031C0.680711 11.2993 0.981031 11.8961 1.34791 12.4441H14.6519C15.0191 11.8961 15.3193 11.2993 15.5433 10.6665Z" fill="#CC0001"/>
<path d="M14.6517 12.4443H1.34766C1.79758 13.1159 2.3467 13.7152 2.97342 14.2221H13.0262C13.6529 13.7154 14.2021 13.1163 14.6517 12.4443Z" fill="white"/>
<path d="M2.97363 14.2222C4.34739 15.3332 6.09555 15.9999 8.00003 15.9999C9.90435 15.9999 11.6527 15.3332 13.0264 14.2222H2.97363Z" fill="#CC0001"/>
<path d="M8.88912 0.05024C8.5968 0.01808 8.30064 0 8 0C3.58176 0 0 3.58176 0 8C0 8.30048 0.01808 8.5968 0.05024 8.88912H8.8888V0.05024H8.88912Z" fill="#030389"/>
<path d="M7.92977 7.60517L7.74305 7.03125L7.55664 7.60517H6.95312L7.44128 7.95957L7.25472 8.53349L7.74305 8.17877L8.2312 8.53349L8.04496 7.95957L8.53329 7.60517H7.92977Z" fill="white"/>
<path d="M6.35017 6.45803L6.16313 5.88379L5.97705 6.45803H5.37305L5.86121 6.81227L5.67497 7.38683L6.16313 7.03179L6.65145 7.38683L6.46489 6.81227L6.95321 6.45803H6.35017Z" fill="white"/>
<path d="M4.39681 7.60517L4.58353 7.03125L4.76977 7.60517H5.37297L4.88481 7.95957L5.07137 8.53349L4.58353 8.17877L4.09489 8.53349L4.28129 7.95957L3.79297 7.60517H4.39681Z" fill="white"/>
<path d="M2.81787 6.45803L3.00443 5.88379L3.19099 6.45803H3.79419L3.30635 6.81227L3.49291 7.38683L3.00443 7.03179L2.51627 7.38683L2.70283 6.81227L2.21387 6.45803H2.81787Z" fill="white"/>
<path d="M6.35017 4.16279L6.16313 3.58887L5.97705 4.16279H5.37305L5.86121 4.51703L5.67497 5.09159L6.16313 4.73671L6.65145 5.09159L6.46489 4.51703L6.95321 4.16279H6.35017Z" fill="white"/>
<path d="M2.81787 4.16278L3.00443 3.58838L3.19099 4.16278H3.79419L3.30635 4.51718L3.49291 5.09158L3.00443 4.7367L2.51627 5.09158L2.70283 4.51718L2.21387 4.16278H2.81787Z" fill="white"/>
<path d="M6.35017 1.86754L6.16313 1.29346L5.97705 1.8677L5.37305 1.86754L5.86121 2.22226L5.67497 2.7965L6.16313 2.4413L6.65145 2.7965L6.46489 2.22226L6.95321 1.8677L6.35017 1.86754Z" fill="white"/>
<path d="M1.61125 7.60517L1.42469 7.03125L1.23829 7.60517H0.634766L1.12293 7.95957L0.936846 8.53349L1.42469 8.17877L1.91333 8.53349L1.72677 7.95957L2.21509 7.60517H1.61125Z" fill="white"/>
<path d="M7.92977 5.31025L7.74305 4.73633L7.55664 5.31025H6.95312L7.44128 5.66465L7.25505 6.23921L7.74305 5.88401L8.2312 6.23921L8.04513 5.66465L8.53329 5.31025H7.92977Z" fill="white"/>
<path d="M4.39681 5.31025L4.58353 4.73633L4.76977 5.31025H5.37297L4.88481 5.66465L5.07137 6.23905L4.58353 5.88401L4.09489 6.23905L4.28129 5.66465L3.79297 5.31025H4.39681Z" fill="white"/>
<path d="M1.61125 5.31025L1.42469 4.73633L1.23829 5.31025H0.634766L1.12293 5.66465L0.936846 6.23921L1.42469 5.88401L1.91333 6.23921L1.72677 5.66465L2.21509 5.31025H1.61125Z" fill="white"/>
<path d="M7.92977 3.01533L7.74305 2.44141L7.55664 3.01533H6.95312L7.44128 3.36989L7.25505 3.94429L7.74305 3.58973L8.2312 3.94429L8.04513 3.36989L8.53329 3.01533H7.92977Z" fill="white"/>
<path d="M4.39681 3.01517L4.58353 2.44141L4.76977 3.01517H5.37297L4.88481 3.36973L5.07137 3.94397L4.58353 3.58957L4.09489 3.94397L4.28129 3.36973L3.79297 3.01517H4.39681Z" fill="white"/>
<path d="M7.92977 0.720244L7.74305 0.146484L7.55664 0.720404L6.95312 0.720244L7.44128 1.07512L7.25505 1.64904L7.74305 1.29448L8.2312 1.64904L8.04513 1.07512L8.53329 0.720404L7.92977 0.720244Z" fill="white"/>
<path d="M2.51562 2.81413L3.00378 2.45941L3.4921 2.81413L3.30555 2.23989L3.79339 1.88517H3.19003L3.11787 1.66357C2.92459 1.81285 2.73786 1.97029 2.55898 2.13637L2.70171 2.23989L2.51562 2.81413Z" fill="white"/>
<path d="M1.91336 3.82251L1.7268 3.24811L2.21496 2.89355H1.84184C1.68264 3.08539 1.5324 3.28507 1.3916 3.49147L1.42472 3.46731L1.91336 3.82251Z" fill="white"/>
<path d="M4.0957 1.66687L4.5845 1.31183L5.07234 1.66687L4.88578 1.09231L5.37395 0.737588L4.77074 0.737908L4.75458 0.687988C4.54594 0.780788 4.3413 0.881108 4.14242 0.990708L4.28226 1.09215L4.0957 1.66687Z" fill="white"/>
<path opacity="0.4" d="M8 16C12.4183 16 16 12.4183 16 8C16 3.58172 12.4183 0 8 0C3.58172 0 0 3.58172 0 8C0 12.4183 3.58172 16 8 16Z" fill="url(#paint0_radial_227_383)"/>
<path d="M3.04004 4.31996C3.04004 2.46396 5.26068 0.959961 7.99972 0.959961C10.7391 0.959961 12.9599 2.46396 12.9599 4.31996C12.9599 6.17564 10.7391 7.67996 7.99972 7.67996C5.26068 7.67996 3.04004 6.17564 3.04004 4.31996Z" fill="url(#paint1_linear_227_383)"/>
<path d="M7.99991 12.0647C11.1822 12.0647 13.7601 11.0122 13.7601 12.6244C13.7601 14.2365 11.1822 16.0001 7.99991 16.0001C4.81879 16.0001 2.24023 14.2367 2.24023 12.6244C2.24023 11.0119 4.81879 12.0647 7.99991 12.0647Z" fill="url(#paint2_linear_227_383)"/>
<defs>
<radialGradient id="paint0_radial_227_383" cx="0" cy="0" r="1" gradientUnits="userSpaceOnUse" gradientTransform="translate(8 8) rotate(180) scale(7.99998)">
<stop offset="0.6" stop-color="white" stop-opacity="0"/>
<stop offset="1" stop-opacity="0.5"/>
</radialGradient>
<linearGradient id="paint1_linear_227_383" x1="7.99991" y1="7.67996" x2="7.99991" y2="0.959961" gradientUnits="userSpaceOnUse">
<stop stop-color="white" stop-opacity="0"/>
<stop offset="1" stop-color="white" stop-opacity="0.4"/>
</linearGradient>
<linearGradient id="paint2_linear_227_383" x1="8.00017" y1="16" x2="8.00017" y2="11.727" gradientUnits="userSpaceOnUse">
<stop stop-color="white" stop-opacity="0.35"/>
<stop offset="0.85" stop-color="white" stop-opacity="0"/>
</linearGradient>
</defs>
</svg>
