<svg width="16" height="16" viewBox="0 0 16 16" fill="none" xmlns="http://www.w3.org/2000/svg">
<mask id="mask0_702_3900" style="mask-type:alpha" maskUnits="userSpaceOnUse" x="0" y="0" width="16" height="16">
<circle cx="8" cy="8" r="8" fill="#D9D9D9"/>
</mask>
<g mask="url(#mask0_702_3900)">
<path d="M20.1538 13.5385C20.1538 14.8978 19.0517 16 17.6923 16H0.461538C-0.897846 16 -2 14.8978 -2 13.5385V2.46154C-2 1.10215 -0.897846 0 0.461538 0H17.6923C19.0517 0 20.1538 1.10215 20.1538 2.46154V13.5385Z" fill="#C60A1D"/>
<path d="M-2 4.30811H20.1538V11.6927H-2V4.30811Z" fill="#FFC400"/>
</g>
<path opacity="0.4" d="M8 16C12.4183 16 16 12.4183 16 8C16 3.58172 12.4183 0 8 0C3.58172 0 0 3.58172 0 8C0 12.4183 3.58172 16 8 16Z" fill="url(#paint0_radial_702_3900)"/>
<path d="M3.03906 4.31996C3.03906 2.46396 5.2597 0.959961 7.99874 0.959961C10.7381 0.959961 12.9589 2.46396 12.9589 4.31996C12.9589 6.17564 10.7381 7.67996 7.99874 7.67996C5.2597 7.67996 3.03906 6.17564 3.03906 4.31996Z" fill="url(#paint1_linear_702_3900)"/>
<path d="M7.99796 12.0647C11.1802 12.0647 13.7581 11.0122 13.7581 12.6244C13.7581 14.2365 11.1802 16.0001 7.99796 16.0001C4.81684 16.0001 2.23828 14.2367 2.23828 12.6244C2.23828 11.0119 4.81684 12.0647 7.99796 12.0647Z" fill="url(#paint2_linear_702_3900)"/>
<defs>
<radialGradient id="paint0_radial_702_3900" cx="0" cy="0" r="1" gradientUnits="userSpaceOnUse" gradientTransform="translate(8 8) rotate(180) scale(7.99998)">
<stop offset="0.6" stop-color="white" stop-opacity="0"/>
<stop offset="1" stop-opacity="0.5"/>
</radialGradient>
<linearGradient id="paint1_linear_702_3900" x1="7.99894" y1="7.67996" x2="7.99894" y2="0.959961" gradientUnits="userSpaceOnUse">
<stop stop-color="white" stop-opacity="0"/>
<stop offset="1" stop-color="white" stop-opacity="0.4"/>
</linearGradient>
<linearGradient id="paint2_linear_702_3900" x1="7.99821" y1="16" x2="7.99821" y2="11.727" gradientUnits="userSpaceOnUse">
<stop stop-color="white" stop-opacity="0.35"/>
<stop offset="0.85" stop-color="white" stop-opacity="0"/>
</linearGradient>
</defs>
</svg>
