<svg width="16" height="16" viewBox="0 0 16 16" fill="none" xmlns="http://www.w3.org/2000/svg">
<mask id="mask0_702_3932" style="mask-type:alpha" maskUnits="userSpaceOnUse" x="0" y="0" width="16" height="16">
<circle cx="8" cy="8" r="8" fill="#D9D9D9"/>
</mask>
<g mask="url(#mask0_702_3932)">
<path d="M9.63894 8.61523L9.35155 9.11308H9.92632L9.63894 8.61523ZM7.99832 10.2263L8.28571 9.72847H7.71094L7.99832 10.2263Z" fill="#EDECEC"/>
<path d="M-3.07812 12.3077H19.0757V3.69231H-3.07812V12.3077ZM-2.8972 1.53846H18.8954C18.5299 0.636923 17.6468 0 16.6142 0H-0.616586C-1.6492 0 -2.53228 0.636923 -2.8972 1.53846Z" fill="#EEEEEE"/>
<path d="M9.92631 6.88716H9.35154L9.63893 7.385L9.92631 6.88716ZM6.64508 6.88716H6.07031L6.3577 7.385L6.64508 6.88716ZM8.64077 9.11362L9.28385 8.00039L8.64077 6.88716H7.35585L6.71277 8.00039L7.35585 9.11362H8.64077ZM6.3577 8.61577L6.07031 9.11362H6.64508L6.3577 8.61577ZM7.99831 5.77393L7.71093 6.27177H8.2857L7.99831 5.77393Z" fill="#EDECEC"/>
<path d="M-2.8972 1.53857C-3.01289 1.82411 -3.07812 2.13488 -3.07812 2.46165V3.69242H19.0757V2.46165C19.0757 2.13488 19.0105 1.82411 18.8948 1.53857H-2.8972Z" fill="#0038B8"/>
<path d="M-2.89844 14.4614H18.8942C18.5286 15.363 17.6456 15.9999 16.6129 15.9999H-0.617822C-1.65044 15.9999 -2.53351 15.363 -2.89844 14.4614Z" fill="#EEEEEE"/>
<path d="M-2.8972 14.4622C-3.01289 14.1767 -3.07812 13.8659 -3.07812 13.5391V12.3084H19.0757V13.5391C19.0757 13.8659 19.0105 14.1767 18.8948 14.4622H-2.8972ZM7.00064 9.7293L7.9988 11.4579L8.99695 9.7293H10.9926L9.99511 8.00069L10.9933 6.27207H8.99757L7.9988 4.54346L7.00064 6.27207H5.00495L6.00249 8.00069L5.00434 9.7293H7.00064ZM7.9988 10.2271L7.71141 9.7293H8.28618L7.9988 10.2271ZM9.9268 6.88746L9.63941 7.3853L9.35203 6.88807H9.9268V6.88746ZM9.63941 8.61607L9.9268 9.1133H9.35203L9.63941 8.61607ZM7.9988 5.77423L8.28618 6.27207H7.71141L7.9988 5.77423ZM7.35634 6.88746H8.64188L9.28434 8.00069L8.64188 9.11392H7.35634L6.71326 8.00069L7.35634 6.88746ZM6.64557 6.88746L6.35818 7.3853L6.0708 6.88807H6.64557V6.88746ZM6.35818 8.61607L6.64557 9.1133H6.0708L6.35818 8.61607Z" fill="#0038B8"/>
</g>
<path opacity="0.4" d="M8 16C12.4183 16 16 12.4183 16 8C16 3.58172 12.4183 0 8 0C3.58172 0 0 3.58172 0 8C0 12.4183 3.58172 16 8 16Z" fill="url(#paint0_radial_702_3932)"/>
<path d="M3.03906 4.31996C3.03906 2.46396 5.2597 0.959961 7.99874 0.959961C10.7381 0.959961 12.9589 2.46396 12.9589 4.31996C12.9589 6.17564 10.7381 7.67996 7.99874 7.67996C5.2597 7.67996 3.03906 6.17564 3.03906 4.31996Z" fill="url(#paint1_linear_702_3932)"/>
<path d="M7.99796 12.0647C11.1802 12.0647 13.7581 11.0122 13.7581 12.6244C13.7581 14.2365 11.1802 16.0001 7.99796 16.0001C4.81684 16.0001 2.23828 14.2367 2.23828 12.6244C2.23828 11.0119 4.81684 12.0647 7.99796 12.0647Z" fill="url(#paint2_linear_702_3932)"/>
<defs>
<radialGradient id="paint0_radial_702_3932" cx="0" cy="0" r="1" gradientUnits="userSpaceOnUse" gradientTransform="translate(8 8) rotate(180) scale(7.99998)">
<stop offset="0.6" stop-color="white" stop-opacity="0"/>
<stop offset="1" stop-opacity="0.5"/>
</radialGradient>
<linearGradient id="paint1_linear_702_3932" x1="7.99894" y1="7.67996" x2="7.99894" y2="0.959961" gradientUnits="userSpaceOnUse">
<stop stop-color="white" stop-opacity="0"/>
<stop offset="1" stop-color="white" stop-opacity="0.4"/>
</linearGradient>
<linearGradient id="paint2_linear_702_3932" x1="7.99821" y1="16" x2="7.99821" y2="11.727" gradientUnits="userSpaceOnUse">
<stop stop-color="white" stop-opacity="0.35"/>
<stop offset="0.85" stop-color="white" stop-opacity="0"/>
</linearGradient>
</defs>
</svg>
