<svg version="1.2" xmlns="http://www.w3.org/2000/svg" viewBox="0 0 16 16" width="16" height="16">
	<title>shutterstock_644497909-ai</title>
	<defs>
		<clipPath clipPathUnits="userSpaceOnUse" id="cp1">
			<path d="m73.49-28.11c-4.43 0-8.01-3.58-8.01-8.01 0-4.43 3.58-8.02 8.01-8.02 4.43 0 8.02 3.59 8.02 8.02 0 4.43-3.59 8.01-8.02 8.01z"/>
		</clipPath>
		<clipPath clipPathUnits="userSpaceOnUse" id="cp2">
			<path d="m51.66 15.93c-4.34 0-7.85-3.51-7.85-7.85 0-4.34 3.51-7.85 7.85-7.85 4.35 0 7.85 3.51 7.85 7.85 0 4.34-3.5 7.85-7.85 7.85z"/>
		</clipPath>
		<clipPath clipPathUnits="userSpaceOnUse" id="cp3">
			<path d="m73.48 15.93c-4.43 0-8.02-3.59-8.02-8.02 0-4.44 3.59-8.02 8.02-8.02 4.44 0 8.03 3.58 8.03 8.02 0 4.43-3.59 8.02-8.03 8.02z"/>
		</clipPath>
		<clipPath clipPathUnits="userSpaceOnUse" id="cp4">
			<path d="m51.66-28.39c-4.35 0-7.87-3.52-7.87-7.87 0-4.36 3.52-7.88 7.87-7.88 4.36 0 7.88 3.52 7.88 7.88 0 4.35-3.52 7.87-7.88 7.87z"/>
		</clipPath>
		<clipPath clipPathUnits="userSpaceOnUse" id="cp5">
			<path d="m8.02 15.93c-4.36 0-7.88-3.52-7.88-7.88 0-4.36 3.52-7.88 7.88-7.88 4.36 0 7.88 3.52 7.88 7.88 0 4.36-3.52 7.88-7.88 7.88z"/>
		</clipPath>
		<clipPath clipPathUnits="userSpaceOnUse" id="cp6">
			<path d="m51.79-6.21c-4.36 0-7.88-3.52-7.88-7.88 0-4.36 3.52-7.88 7.88-7.88 4.35 0 7.88 3.52 7.88 7.88 0 4.36-3.53 7.88-7.88 7.88z"/>
		</clipPath>
		<clipPath clipPathUnits="userSpaceOnUse" id="cp7">
			<path d="m42.16-22.04h19.28v15.9h-19.28z"/>
		</clipPath>
		<clipPath clipPathUnits="userSpaceOnUse" id="cp8">
			<path d="m29.96-6.24c-4.36 0-7.89-3.53-7.89-7.89 0-4.37 3.53-7.9 7.89-7.9 4.37 0 7.9 3.53 7.9 7.9 0 4.36-3.53 7.89-7.9 7.89z"/>
		</clipPath>
		<clipPath clipPathUnits="userSpaceOnUse" id="cp9">
			<path d="m73.61-6.21c-4.36 0-7.89-3.53-7.89-7.9 0-4.36 3.53-7.89 7.89-7.89 4.37 0 7.89 3.53 7.89 7.89 0 4.37-3.52 7.9-7.89 7.9z"/>
		</clipPath>
		<clipPath clipPathUnits="userSpaceOnUse" id="cp10">
			<path d="m29.84-28.49c-4.33 0-7.83-3.5-7.83-7.82 0-4.33 3.5-7.83 7.83-7.83 4.32 0 7.82 3.5 7.82 7.83 0 4.32-3.5 7.82-7.82 7.82z"/>
		</clipPath>
		<clipPath clipPathUnits="userSpaceOnUse" id="cp11">
			<path d="m8.01-28.4c-4.35 0-7.87-3.52-7.87-7.87 0-4.35 3.52-7.87 7.87-7.87 4.35 0 7.87 3.52 7.87 7.87 0 4.35-3.52 7.87-7.87 7.87z"/>
		</clipPath>
		<clipPath clipPathUnits="userSpaceOnUse" id="cp12">
			<path d="m8.14-6.11c-4.42 0-8-3.58-8-8 0-4.42 3.58-8 8-8 4.42 0 8 3.58 8 8 0 4.42-3.58 8-8 8z"/>
		</clipPath>
	</defs>
	<style>
		.s0 { fill: #009a3c } 
		.s1 { fill: #fdde19 } 
		.s2 { fill: #032775 } 
		.s3 { fill: #ffffff } 
		.s4 { fill: #008300 } 
		.s5 { fill: #e81a05 } 
		.s6 { fill: #ffcf03 } 
		.s7 { fill: #ffffff;stroke: #020202;stroke-width: 0 } 
		.s8 { fill: #d60b0b;stroke: #020202;stroke-width: 0 } 
		.s9 { fill: #0a0a75;stroke: #020202;stroke-width: 0 } 
		.s10 { fill: none;stroke: #020202;stroke-width: 0 } 
		.s11 { fill: #ffffff;stroke: #050505;stroke-width: 0 } 
		.s12 { fill: #1750dd;stroke: #050505;stroke-width: 0 } 
		.s13 { fill: #fc0606;stroke: #050505;stroke-width: 0 } 
		.s14 { fill: none;stroke: #050505;stroke-width: 0 } 
		.s15 { fill: #d80303;stroke: #020202;stroke-width: 0 } 
		.s16 { fill: #2b9305;stroke: #050505;stroke-width: 0 } 
		.s17 { fill: #e01005;stroke: #050505;stroke-width: 0 } 
		.s18 { fill: #003893;stroke: #020202;stroke-width: 0 } 
		.s19 { fill: #ea0707;stroke: #020202;stroke-width: 0 } 
		.s20 { fill: #063c89;stroke: #020202;stroke-width: 0 } 
		.s21 { fill: #020202 } 
		.s22 { fill: #fd0302 } 
		.s23 { fill: #fdca16 } 
		.s24 { fill: #0a2491;stroke: #020202;stroke-width: 0 } 
		.s25 { fill: #cc0d1f;stroke: #020202;stroke-width: 0 } 
		.s26 { fill: #ff0302;stroke: #020202;stroke-width: 0 } 
		.s27 { fill: #003893 } 
		.s28 { fill: #ea0000 } 
		.s29 { fill: #e2001b } 
	</style>
	<g id="Layer 1">
		<g id="&lt;Clip Group&gt;" clip-path="url(#cp1)">
			<g id="&lt;Group&gt;">
				<path id="&lt;Path&gt;" class="s0" d="m65.4-44.3h16.2v16.4h-16.2z"/>
				<g id="&lt;Group&gt;">
					<g id="&lt;Group&gt;">
						<path id="&lt;Path&gt;" class="s1" d="m73.4-40.5l6.7 4.3-6.7 4.2-6.6-4.2z"/>
						<path id="&lt;Path&gt;" class="s2" d="m73.5-33.5c-1.5 0-2.7-1.3-2.7-2.8 0-1.5 1.2-2.7 2.7-2.7 1.5 0 2.7 1.2 2.7 2.7 0 1.5-1.2 2.8-2.7 2.8z"/>
					</g>
					<g id="&lt;Group&gt;">
						<g id="&lt;Group&gt;">
							<path id="&lt;Path&gt;" class="s3" d="m74.5-37.6v0.1h0.1-0.1l0.1 0.1-0.1-0.1-0.1 0.1 0.1-0.1h-0.1 0.1z"/>
						</g>
						<g id="&lt;Group&gt;">
							<path id="&lt;Path&gt;" class="s3" d="m72.7-36.4v0.1 0.1-0.1l-0.1 0.1v-0.1z"/>
						</g>
						<g id="&lt;Group&gt;">
							<path id="&lt;Path&gt;" class="s3" d="m71.6-36.5h0.1l-0.1 0.1-0.1-0.1h0.1z"/>
						</g>
						<g id="&lt;Group&gt;">
							<path id="&lt;Path&gt;" class="s3" d="m71-36.9h0.1l-0.1 0.1h-0.1 0.1l-0.1-0.1h0.1z"/>
						</g>
						<g id="&lt;Group&gt;">
							<path id="&lt;Path&gt;" class="s3" d="m71-36.1v0.1 0.1-0.1l-0.1 0.1v-0.1h0.1z"/>
						</g>
						<g id="&lt;Group&gt;">
							<path id="&lt;Path&gt;" class="s3" d="m72-35.9v0.1h0.1l-0.1 0.1h0.1-0.1-0.1 0.1l-0.1-0.1h0.1z"/>
						</g>
						<g id="&lt;Group&gt;">
							<path id="&lt;Path&gt;" class="s3" d="m72.9-35.4v0.1h0.1l-0.1 0.1h-0.1v-0.1h0.1z"/>
						</g>
						<g id="&lt;Group&gt;">
							<path id="&lt;Path&gt;" class="s3" d="m73.7-35.4v0.1h0.1v0.1h-0.1-0.1 0.1l-0.1-0.1h0.1z"/>
						</g>
						<g id="&lt;Group&gt;">
							<path id="&lt;Path&gt;" class="s3" d="m74-36h0.1l-0.1 0.1v0.1-0.1l-0.1 0.1v-0.1-0.1h0.1z"/>
						</g>
						<g id="&lt;Group&gt;">
							<path id="&lt;Path&gt;" class="s3" d="m73.7-36.2h0.1v0.1 0.1l-0.1-0.1h-0.1 0.1l-0.1-0.1h0.1z"/>
						</g>
						<g id="&lt;Group&gt;">
							<path id="&lt;Path&gt;" class="s3" d="m73.5-35.9v0.1h0.1v0.1l-0.1-0.1-0.1 0.1 0.1-0.1-0.1-0.1h0.1z"/>
						</g>
						<g id="&lt;Group&gt;">
							<path id="&lt;Path&gt;" class="s3" d="m75.4-35.7v0.1h0.1-0.1l0.1 0.1h-0.1-0.1v-0.1-0.1h0.1z"/>
						</g>
						<g id="&lt;Group&gt;">
							<path id="&lt;Path&gt;" class="s3" d="m75.5-35.4v0.1h0.1-0.1v0.1-0.1l-0.1 0.1v-0.1h0.1z"/>
						</g>
						<g id="&lt;Group&gt;">
							<path id="&lt;Path&gt;" class="s3" d="m75.7-35.7v0.1h0.1v0.1l-0.1-0.1v0.1-0.1h-0.1 0.1z"/>
						</g>
						<g id="&lt;Group&gt;">
							<path id="&lt;Path&gt;" class="s3" d="m75.1-35.2l0.1 0.1h-0.1l0.1 0.1-0.1-0.1-0.1 0.1 0.1-0.1-0.1-0.1h0.1z"/>
						</g>
						<g id="&lt;Group&gt;">
							<path id="&lt;Path&gt;" class="s3" d="m74.9-35.1l0.1 0.1v0.1l-0.1-0.1v0.1-0.1z"/>
						</g>
						<g id="&lt;Group&gt;">
							<path id="&lt;Path&gt;" class="s3" d="m75-34.9v0.1h0.1-0.1v0.1-0.1l-0.1 0.1v-0.1h0.1z"/>
						</g>
						<g id="&lt;Group&gt;">
							<path id="&lt;Path&gt;" class="s3" d="m75.4-35.2v0.1 0.1h-0.1v-0.1z"/>
						</g>
						<g id="&lt;Group&gt;">
							<path id="&lt;Path&gt;" class="s3" d="m74.6-35.1v0.1h0.1v0.1h-0.1v-0.1h-0.1 0.1z"/>
						</g>
						<g id="&lt;Group&gt;">
							<path id="&lt;Path&gt;" class="s3" d="m74.3-35.1v0.1h0.1-0.1v0.1-0.1l-0.1 0.1v-0.1z"/>
						</g>
						<g id="&lt;Group&gt;">
							<path id="&lt;Path&gt;" class="s3" d="m73.4-35.5l0.1 0.1v0.1h-0.1v-0.1h-0.1 0.1z"/>
						</g>
						<g id="&lt;Group&gt;">
							<path id="&lt;Path&gt;" class="s3" d="m74.1-35.6h0.1v0.1h-0.1l-0.1-0.1h0.1z"/>
						</g>
						<g id="&lt;Group&gt;">
							<path id="&lt;Path&gt;" class="s3" d="m74.4-36.5h0.1l-0.1 0.1h-0.1v-0.1h0.1z"/>
						</g>
						<g id="&lt;Group&gt;">
							<path id="&lt;Path&gt;" class="s3" d="m73.8-34.5h0.1l-0.1 0.1h-0.1 0.1l-0.1-0.1h0.1z"/>
						</g>
					</g>
					<path id="&lt;Path&gt;" class="s3" d="m76.2-36.5c0 0.4 0 0.6 0 0.6-2-1.5-5.1-1.7-5.1-1.7 0.2-0.3 0.3-0.4 0.3-0.4 3 0.3 4.8 1.5 4.8 1.5z"/>
					<g id="&lt;Group&gt;">
						<path id="&lt;Path&gt;" class="s3" d="m71.2-35.9h0.1-0.1v0.1-0.1h-0.1 0.1z"/>
					</g>
					<g id="&lt;Group&gt;">
						<path id="&lt;Compound Path&gt;" fill-rule="evenodd" class="s4" d="m71.6-37.6q-0.1 0-0.1-0.1 0-0.2 0.1-0.2 0.1 0 0.1 0.2 0 0.1-0.1 0.1zm-0.1-0.2q0 0.1 0.1 0.2 0 0 0.1-0.1 0-0.1-0.1-0.1-0.1 0-0.1 0z"/>
						<path id="&lt;Compound Path&gt;" fill-rule="evenodd" class="s4" d="m71.8-37.8q0.1 0 0.1 0 0.1 0 0.1 0 0 0 0 0 0 0.1-0.1 0.1 0.1 0 0.1 0.1 0 0 0 0h-0.1q0 0 0 0 0-0.1 0-0.1h-0.1v0.1zm0 0.1h0.1q0 0 0 0 0 0 0-0.1-0.1 0-0.1 0z"/>
						<path id="&lt;Compound Path&gt;" fill-rule="evenodd" class="s4" d="m72.1-37.8q0.1 0 0.1 0 0.1 0 0.1 0.1 0 0 0 0.1 0 0 0 0.1-0.1 0-0.2 0 0 0 0 0zm0 0.2q0 0 0 0 0.1 0 0.1-0.1 0.1-0.1 0-0.1-0.1 0-0.1 0z"/>
						<path id="&lt;Compound Path&gt;" class="s4" d="m72.6-37.6h-0.1v0.1h0.1-0.2l0.1-0.2h0.1-0.1v0.1h0.1z"/>
						<path id="&lt;Compound Path&gt;" class="s4" d="m72.9-37.5q0-0.1 0-0.1 0 0 0 0.1l-0.1 0.1v-0.1q0-0.1 0-0.1 0 0-0.1 0.1v0.1-0.3h0.1v0.2q0 0 0 0 0 0 0.1 0v-0.1h0.1l-0.1 0.2z"/>
						<path id="&lt;Compound Path&gt;" class="s4" d="m73.4-37.4h-0.1v0.1h0.1-0.2l0.1-0.3 0.1 0.1h-0.1v0.1h0.1z"/>
						<path id="&lt;Compound Path&gt;" fill-rule="evenodd" class="s4" d="m73.7-37.4q0 0 0.1 0 0 0 0 0 0.1 0 0 0.1 0 0 0 0 0 0-0.1 0 0 0 0 0v0.1h-0.1zm0 0.1q0 0 0.1 0 0 0.1 0 0 0.1 0 0-0.1 0 0 0 0z"/>
						<path id="&lt;Compound Path&gt;" fill-rule="evenodd" class="s4" d="m74-37.4q0 0 0.1 0.1 0 0 0 0 0 0 0 0.1 0 0 0 0 0 0 0 0.1 0 0 0 0h-0.1q0 0 0 0 0.1-0.1 0-0.1l-0.1 0.1zm0 0.1q0.1 0 0.1 0 0-0.1 0-0.1-0.1 0-0.1 0z"/>
						<path id="&lt;Compound Path&gt;" fill-rule="evenodd" class="s4" d="m74.3-37q-0.1 0-0.1-0.1 0-0.1 0.1-0.1 0.1 0 0.2 0.1-0.1 0.1-0.2 0.1zm0-0.1q-0.1 0.1 0 0.1 0.1 0 0.1-0.1 0-0.1 0-0.1-0.1 0-0.1 0.1z"/>
						<path id="&lt;Compound Path&gt;" class="s4" d="m74.7-36.8q0 0-0.1-0.1 0 0-0.1 0 0-0.1 0-0.1 0.1-0.1 0.2-0.1 0.1 0 0.1 0v0.1q0-0.1-0.1-0.1-0.1 0-0.1 0.1-0.1 0.1 0 0.1 0.1 0 0.1 0v-0.1z"/>
						<path id="&lt;Compound Path&gt;" fill-rule="evenodd" class="s4" d="m74.9-37q0 0 0.1 0 0 0 0 0.1 0.1 0 0 0 0 0.1 0 0v0.1q0 0 0 0 0 0.1 0 0.1h-0.1q0 0 0.1-0.1 0 0-0.1-0.1v0.1h-0.1zm0 0.1v0.1q0.1 0 0.1-0.1 0 0 0 0 0 0-0.1 0z"/>
						<path id="&lt;Compound Path&gt;" class="s4" d="m75.3-36.7l-0.1-0.1-0.1 0.1 0.1 0.1-0.1-0.1 0.1-0.2 0.1 0.1-0.1-0.1v0.1l0.1 0.1z"/>
						<path id="&lt;Compound Path&gt;" class="s4" d="m75.3-36.6q0.1 0 0.1 0.1 0 0 0.1-0.1 0 0-0.1 0 0-0.1 0-0.1 0-0.1 0.1 0 0 0 0.1 0h-0.1q0 0 0 0 0 0-0.1 0 0 0 0.1 0.1 0 0 0 0.1 0 0-0.1 0-0.1 0-0.1-0.1z"/>
						<path id="&lt;Compound Path&gt;" class="s4" d="m75.6-36.5q0 0.1 0 0.1 0.1 0 0.1 0 0-0.1 0-0.1-0.1 0 0-0.1 0-0.1 0.1 0 0 0 0 0 0 0-0.1 0 0 0 0 0 0 0 0 0.1 0.1 0 0 0.1 0 0-0.1 0 0 0 0 0z"/>
						<path id="&lt;Compound Path&gt;" fill-rule="evenodd" class="s4" d="m76.1-36.3q-0.1 0.1-0.2 0.1-0.1-0.1 0-0.2 0-0.1 0.1-0.1 0.1 0.1 0.1 0.2zm-0.2-0.1q-0.1 0.1 0 0.1 0.1 0.1 0.1 0 0.1-0.1 0-0.1-0.1-0.1-0.1 0z"/>
					</g>
				</g>
			</g>
		</g>
		<g id="&lt;Clip Group&gt;" clip-path="url(#cp2)">
			<g id="&lt;Group&gt;">
				<path id="&lt;Path&gt;" class="s5" d="m43.4-0.2h16.5v16.6h-16.5z"/>
				<g id="&lt;Group&gt;">
					<path id="&lt;Path&gt;" class="s6" d="m45.9 4.6l0.3 0.9 1 0.1-0.8 0.6 0.3 0.9-0.8-0.6-0.8 0.6 0.3-0.9-0.8-0.6 1-0.1z"/>
					<path id="&lt;Path&gt;" class="s6" d="m48.2 4l0.1 0.3h0.3l-0.2 0.2 0.1 0.3-0.2-0.2-0.3 0.2 0.1-0.3-0.3-0.2h0.3z"/>
					<path id="&lt;Path&gt;" class="s6" d="m48.7 5.3l0.1 0.2 0.3 0.1-0.2 0.1 0.1 0.3-0.3-0.1-0.2 0.1v-0.3l-0.2-0.1 0.3-0.1z"/>
					<path id="&lt;Path&gt;" class="s6" d="m48.7 6.5l0.1 0.3h0.3l-0.2 0.2 0.1 0.3-0.3-0.2-0.3 0.2 0.1-0.3-0.2-0.2h0.3z"/>
					<path id="&lt;Path&gt;" class="s6" d="m48.1 7.6l0.1 0.3h0.3l-0.2 0.2 0.1 0.3-0.3-0.2-0.3 0.2 0.1-0.3-0.2-0.2h0.3z"/>
				</g>
			</g>
		</g>
		<g id="&lt;Clip Group&gt;" clip-path="url(#cp3)">
			<g id="&lt;Group&gt;">
				<g id="&lt;Group&gt;">
					<path id="&lt;Path&gt;" class="s7" d="m60.8-0.2h25.4v16.2h-25.4z"/>
					<path id="&lt;Path&gt;" class="s8" d="m73-0.2h13.2v1.3h-13.2z"/>
					<path id="&lt;Path&gt;" class="s8" d="m73 2.3h13.2v1.3h-13.2z"/>
					<path id="&lt;Path&gt;" class="s8" d="m73 4.8h13.2v1.3h-13.2z"/>
					<path id="&lt;Path&gt;" class="s8" d="m73 7.3h13.2v1.2h-13.2z"/>
					<path id="&lt;Path&gt;" class="s8" d="m60.8 9.8h25.4v1.2h-25.4z"/>
					<path id="&lt;Path&gt;" class="s8" d="m60.8 12.3h25.4v1.2h-25.4z"/>
					<path id="&lt;Path&gt;" class="s8" d="m60.8 14.7h25.4v1.3h-25.4z"/>
					<path id="&lt;Path&gt;" class="s9" d="m60.8-0.2h12.2v8.7h-12.2z"/>
				</g>
				<g id="&lt;Group&gt;">
					<g id="&lt;Group&gt;">
						<path id="&lt;Path&gt;" class="s7" d="m61.4 3.8l0.2 0.3h0.3l-0.2 0.2v0.3l-0.3-0.1-0.3 0.1 0.1-0.3-0.2-0.2h0.3z"/>
						<path id="&lt;Path&gt;" class="s7" d="m63.6 3.8l0.2 0.3h0.3l-0.3 0.2 0.1 0.3-0.3-0.1-0.3 0.1 0.1-0.3-0.2-0.2h0.3z"/>
						<path id="&lt;Path&gt;" class="s7" d="m65.8 3.8l0.1 0.3h0.3l-0.2 0.2 0.1 0.3-0.3-0.1-0.3 0.1 0.1-0.3-0.3-0.2h0.3z"/>
						<path id="&lt;Path&gt;" class="s7" d="m72.3 3.8l0.2 0.3h0.3l-0.2 0.2v0.3l-0.3-0.1-0.3 0.1 0.1-0.3-0.2-0.2h0.3z"/>
						<path id="&lt;Path&gt;" class="s7" d="m70.1 3.8l0.2 0.3h0.3l-0.2 0.2v0.3l-0.3-0.1-0.2 0.1v-0.3l-0.2-0.2h0.3z"/>
						<path id="&lt;Path&gt;" class="s7" d="m68 3.8l0.1 0.3h0.3l-0.2 0.2v0.3l-0.2-0.1-0.3 0.1v-0.3l-0.2-0.2h0.3z"/>
					</g>
					<g id="&lt;Group&gt;">
						<path id="&lt;Path&gt;" class="s7" d="m61.4 2.1l0.2 0.2 0.3 0.1-0.2 0.2v0.3l-0.3-0.2-0.3 0.2 0.1-0.3-0.2-0.2 0.3-0.1z"/>
						<path id="&lt;Path&gt;" class="s7" d="m63.6 2.1l0.2 0.2 0.3 0.1-0.3 0.2 0.1 0.3-0.3-0.2-0.3 0.2 0.1-0.3-0.2-0.2 0.3-0.1z"/>
						<path id="&lt;Path&gt;" class="s7" d="m65.8 2.1l0.1 0.2 0.3 0.1-0.2 0.2 0.1 0.3-0.3-0.2-0.3 0.2 0.1-0.3-0.3-0.2 0.3-0.1z"/>
						<path id="&lt;Path&gt;" class="s7" d="m72.3 2.1l0.2 0.2 0.3 0.1-0.2 0.2v0.3l-0.3-0.2-0.3 0.2 0.1-0.3-0.2-0.2 0.3-0.1z"/>
						<path id="&lt;Path&gt;" class="s7" d="m70.1 2.1l0.2 0.2 0.3 0.1-0.2 0.2v0.3l-0.3-0.2-0.2 0.2v-0.3l-0.2-0.2 0.3-0.1z"/>
						<path id="&lt;Path&gt;" class="s7" d="m68 2.1l0.1 0.2 0.3 0.1-0.2 0.2v0.3l-0.2-0.2-0.3 0.2v-0.3l-0.2-0.2 0.3-0.1z"/>
					</g>
					<g id="&lt;Group&gt;">
						<path id="&lt;Path&gt;" class="s7" d="m61.4 0.3l0.2 0.2 0.3 0.1-0.2 0.2v0.3l-0.3-0.1-0.3 0.1 0.1-0.3-0.2-0.2 0.3-0.1z"/>
						<path id="&lt;Path&gt;" class="s7" d="m63.6 0.3l0.2 0.2 0.3 0.1-0.3 0.2 0.1 0.3-0.3-0.1-0.3 0.1 0.1-0.3-0.2-0.2 0.3-0.1z"/>
						<path id="&lt;Path&gt;" class="s7" d="m65.8 0.3l0.1 0.2 0.3 0.1-0.2 0.2 0.1 0.3-0.3-0.1-0.3 0.1 0.1-0.3-0.3-0.2 0.3-0.1z"/>
						<path id="&lt;Path&gt;" class="s7" d="m72.3 0.3l0.2 0.2 0.3 0.1-0.2 0.2v0.3l-0.3-0.1-0.3 0.1 0.1-0.3-0.2-0.2 0.3-0.1z"/>
						<path id="&lt;Path&gt;" class="s7" d="m70.1 0.3l0.2 0.2 0.3 0.1-0.2 0.2v0.3l-0.3-0.1-0.2 0.1v-0.3l-0.2-0.2 0.3-0.1z"/>
						<path id="&lt;Path&gt;" class="s7" d="m68 0.3l0.1 0.2 0.3 0.1-0.2 0.2v0.3l-0.2-0.1-0.3 0.1v-0.3l-0.2-0.2 0.3-0.1z"/>
					</g>
					<g id="&lt;Group&gt;">
						<path id="&lt;Path&gt;" class="s7" d="m62.5 1.2l0.2 0.3h0.3l-0.3 0.2 0.1 0.3-0.3-0.1-0.3 0.1 0.1-0.3-0.2-0.2h0.3z"/>
						<path id="&lt;Path&gt;" class="s7" d="m64.7 1.2l0.1 0.3h0.4l-0.3 0.2 0.1 0.3-0.3-0.1-0.3 0.1 0.1-0.3-0.3-0.2h0.4z"/>
						<path id="&lt;Path&gt;" class="s7" d="m71.2 1.2l0.2 0.3h0.3l-0.2 0.2v0.3l-0.3-0.1-0.3 0.1 0.1-0.3-0.2-0.2h0.3z"/>
						<path id="&lt;Path&gt;" class="s7" d="m69 1.2l0.2 0.3h0.3l-0.2 0.2v0.3l-0.3-0.1-0.2 0.1v-0.3l-0.2-0.2h0.3z"/>
						<path id="&lt;Path&gt;" class="s7" d="m66.9 1.2l0.1 0.3h0.3l-0.2 0.2 0.1 0.3-0.3-0.1-0.3 0.1v-0.3l-0.2-0.2h0.3z"/>
					</g>
					<g id="&lt;Group&gt;">
						<path id="&lt;Path&gt;" class="s7" d="m62.5 3l0.2 0.3h0.3l-0.3 0.2 0.1 0.3-0.3-0.1-0.3 0.1 0.1-0.3-0.2-0.2h0.3z"/>
						<path id="&lt;Path&gt;" class="s7" d="m64.7 3l0.1 0.3h0.4l-0.3 0.2 0.1 0.3-0.3-0.1-0.3 0.1 0.1-0.3-0.3-0.2h0.4z"/>
						<path id="&lt;Path&gt;" class="s7" d="m71.2 3l0.2 0.3h0.3l-0.2 0.2v0.3l-0.3-0.1-0.3 0.1 0.1-0.3-0.2-0.2h0.3z"/>
						<path id="&lt;Path&gt;" class="s7" d="m69 3l0.2 0.3h0.3l-0.2 0.2v0.3l-0.3-0.1-0.2 0.1v-0.3l-0.2-0.2h0.3z"/>
						<path id="&lt;Path&gt;" class="s7" d="m66.9 3l0.1 0.3h0.3l-0.2 0.2 0.1 0.3-0.3-0.1-0.3 0.1v-0.3l-0.2-0.2h0.3z"/>
					</g>
					<g id="&lt;Group&gt;">
						<path id="&lt;Path&gt;" class="s7" d="m62.5 4.7l0.2 0.3h0.3l-0.3 0.3 0.1 0.3-0.3-0.2-0.3 0.2 0.1-0.3-0.2-0.3h0.3z"/>
						<path id="&lt;Path&gt;" class="s7" d="m64.7 4.7l0.1 0.3h0.4l-0.3 0.3 0.1 0.3-0.3-0.2-0.3 0.2 0.1-0.3-0.3-0.3h0.4z"/>
						<path id="&lt;Path&gt;" class="s7" d="m71.2 4.7l0.2 0.3h0.3l-0.2 0.3v0.3l-0.3-0.2-0.3 0.2 0.1-0.3-0.2-0.3h0.3z"/>
						<path id="&lt;Path&gt;" class="s7" d="m69 4.7l0.2 0.3h0.3l-0.2 0.3v0.3l-0.3-0.2-0.2 0.2v-0.3l-0.2-0.3h0.3z"/>
						<path id="&lt;Path&gt;" class="s7" d="m66.9 4.7l0.1 0.3h0.3l-0.2 0.3 0.1 0.3-0.3-0.2-0.3 0.2v-0.3l-0.2-0.3h0.3z"/>
					</g>
					<g id="&lt;Group&gt;">
						<path id="&lt;Path&gt;" class="s7" d="m62.5 6.4l0.2 0.3 0.3 0.1-0.3 0.2 0.1 0.3-0.3-0.2-0.3 0.2 0.1-0.3-0.2-0.2 0.3-0.1z"/>
						<path id="&lt;Path&gt;" class="s7" d="m64.7 6.4l0.1 0.3 0.4 0.1-0.3 0.2 0.1 0.3-0.3-0.2-0.3 0.2 0.1-0.3-0.3-0.2 0.4-0.1z"/>
						<path id="&lt;Path&gt;" class="s7" d="m71.2 6.4l0.2 0.3 0.3 0.1-0.2 0.2v0.3l-0.3-0.2-0.3 0.2 0.1-0.3-0.2-0.2 0.3-0.1z"/>
						<path id="&lt;Path&gt;" class="s7" d="m69 6.4l0.2 0.3 0.3 0.1-0.2 0.2v0.3l-0.3-0.2-0.2 0.2v-0.3l-0.2-0.2 0.3-0.1z"/>
						<path id="&lt;Path&gt;" class="s7" d="m66.9 6.4l0.1 0.3 0.3 0.1-0.2 0.2 0.1 0.3-0.3-0.2-0.3 0.2v-0.3l-0.2-0.2 0.3-0.1z"/>
					</g>
					<g id="&lt;Group&gt;">
						<path id="&lt;Path&gt;" class="s7" d="m61.4 5.6l0.2 0.2 0.3 0.1-0.2 0.2v0.3l-0.3-0.2-0.3 0.2 0.1-0.3-0.2-0.2 0.3-0.1z"/>
						<path id="&lt;Path&gt;" class="s7" d="m63.6 5.6l0.2 0.2 0.3 0.1-0.3 0.2 0.1 0.3-0.3-0.2-0.3 0.2 0.1-0.3-0.2-0.2 0.3-0.1z"/>
						<path id="&lt;Path&gt;" class="s7" d="m65.8 5.6l0.1 0.2 0.3 0.1-0.2 0.2 0.1 0.3-0.3-0.2-0.3 0.2 0.1-0.3-0.3-0.2 0.3-0.1z"/>
						<path id="&lt;Path&gt;" class="s7" d="m72.3 5.6l0.2 0.2 0.3 0.1-0.2 0.2v0.3l-0.3-0.2-0.3 0.2 0.1-0.3-0.2-0.2 0.3-0.1z"/>
						<path id="&lt;Path&gt;" class="s7" d="m70.1 5.6l0.2 0.2 0.3 0.1-0.2 0.2v0.3l-0.3-0.2-0.2 0.2v-0.3l-0.2-0.2 0.3-0.1z"/>
						<path id="&lt;Path&gt;" class="s7" d="m68 5.6l0.1 0.2 0.3 0.1-0.2 0.2v0.3l-0.2-0.2-0.3 0.2v-0.3l-0.2-0.2 0.3-0.1z"/>
					</g>
					<g id="&lt;Group&gt;">
						<path id="&lt;Path&gt;" class="s7" d="m61.4 7.3l0.2 0.3h0.3l-0.2 0.2v0.3l-0.3-0.1-0.3 0.1 0.1-0.3-0.2-0.2h0.3z"/>
						<path id="&lt;Path&gt;" class="s7" d="m63.6 7.3l0.2 0.3h0.3l-0.3 0.2 0.1 0.3-0.3-0.1-0.3 0.1 0.1-0.3-0.2-0.2h0.3z"/>
						<path id="&lt;Path&gt;" class="s7" d="m65.8 7.3l0.1 0.3h0.3l-0.2 0.2 0.1 0.3-0.3-0.1-0.3 0.1 0.1-0.3-0.3-0.2h0.3z"/>
						<path id="&lt;Path&gt;" class="s7" d="m72.3 7.3l0.2 0.3h0.3l-0.2 0.2v0.3l-0.3-0.1-0.3 0.1 0.1-0.3-0.2-0.2h0.3z"/>
						<path id="&lt;Path&gt;" class="s7" d="m70.1 7.3l0.2 0.3h0.3l-0.2 0.2v0.3l-0.3-0.1-0.2 0.1v-0.3l-0.2-0.2h0.3z"/>
						<path id="&lt;Path&gt;" class="s7" d="m68 7.3l0.1 0.3h0.3l-0.2 0.2v0.3l-0.2-0.1-0.3 0.1v-0.3l-0.2-0.2h0.3z"/>
					</g>
				</g>
			</g>
		</g>
		<path id="&lt;Path&gt;" class="s10" d="m73.5 15.9c-4.5 0-8-3.6-8-8 0-4.4 3.5-8 8-8 4.4 0 8 3.6 8 8 0 4.4-3.6 8-8 8z"/>
		<g id="&lt;Clip Group&gt;" clip-path="url(#cp4)">
			<g id="&lt;Group&gt;">
				<path id="&lt;Path&gt;" class="s11" d="m39.1-44.2h25.1v5.3h-25.1z"/>
				<path id="&lt;Path&gt;" class="s12" d="m39.1-38.9h25.1v5.3h-25.1z"/>
				<path id="&lt;Path&gt;" class="s13" d="m39.1-33.6h25.1v5.3h-25.1z"/>
			</g>
		</g>
		<path id="&lt;Path&gt;" class="s14" d="m51.7-28.4c-4.4 0-7.9-3.5-7.9-7.9 0-4.3 3.5-7.8 7.9-7.8 4.3 0 7.8 3.5 7.8 7.8 0 4.4-3.5 7.9-7.8 7.9z"/>
		<g id="&lt;Group&gt;">
			<g id="&lt;Group&gt;">
				<g id="&lt;Group&gt;">
					<path id="&lt;Path&gt;" class="s15" d="m29.8 11.2c-1.7 0-3.1-1.4-3.1-3.2 0-1.7 1.4-3.1 3.1-3.1 1.8 0 3.2 1.4 3.2 3.1 0 1.8-1.4 3.2-3.2 3.2z"/>
					<path id="&lt;Path&gt;" class="s10" d="m29.8 15.9c-4.3 0-7.8-3.5-7.8-7.9 0-4.3 3.5-7.8 7.8-7.8 4.4 0 7.9 3.5 7.9 7.8 0 4.4-3.5 7.9-7.9 7.9z"/>
				</g>
			</g>
		</g>
		<g id="&lt;Clip Group&gt;" clip-path="url(#cp5)">
			<g id="&lt;Group&gt;">
				<path id="&lt;Path&gt;" class="s11" d="m0.1-0.8h15.8v17.6h-15.8z"/>
				<path id="&lt;Path&gt;" class="s16" d="m0.1-0.8h5.3v17.6h-5.3z"/>
				<path id="&lt;Path&gt;" class="s17" d="m10.7-0.8h5.2v17.6h-5.2z"/>
			</g>
		</g>
		<path id="&lt;Path&gt;" class="s14" d="m8 15.9c-4.3 0-7.9-3.5-7.9-7.9 0-4.3 3.6-7.8 7.9-7.8 4.4 0 7.9 3.5 7.9 7.8 0 4.4-3.5 7.9-7.9 7.9z"/>
		<g id="&lt;Clip Group&gt;" clip-path="url(#cp6)">
			<g id="&lt;Clip Group&gt;" clip-path="url(#cp7)">
				<g id="&lt;Group&gt;">
					<path id="&lt;Path&gt;" class="s18" d="m42.2-22h19.2v15.8h-19.2z"/>
					<g id="&lt;Group&gt;">
						<path id="&lt;Path&gt;" class="s7" d="m42.2-22h19.2v15.9h-19.2z"/>
						<g id="&lt;Group&gt;">
							<path id="&lt;Path&gt;" class="s19" d="m61.5-12.5h-8.6l-0.1 6.4h-1.9v-6.4h-8.7v-3.1h8.7v-6.4h2v6.4h8.6z"/>
							<g id="&lt;Group&gt;">
								<path id="&lt;Path&gt;" class="s20" d="m50.2-22v4.8l-5.9-4.8z"/>
								<path id="&lt;Path&gt;" class="s20" d="m46.3-16.7h-4.1v-3.4z"/>
								<path id="&lt;Path&gt;" class="s19" d="m48.5-16.7h-1.4l-4.9-4.1v-1.2z"/>
							</g>
							<g id="&lt;Group&gt;">
								<path id="&lt;Path&gt;" class="s20" d="m59.3-22l-5.8 4.8v-4.8z"/>
								<path id="&lt;Path&gt;" class="s20" d="m61.6-20.2v3.5h-4.3z"/>
							</g>
							<g id="&lt;Group&gt;">
								<path id="&lt;Path&gt;" class="s20" d="m53.5-5.6l-0.1-5.3 6.6 5.3z"/>
								<path id="&lt;Path&gt;" class="s20" d="m57.3-11.4l4.3 0.1v3.6z"/>
								<path id="&lt;Path&gt;" class="s19" d="m55.1-11.3h1.4l5 4v1.2z"/>
							</g>
							<g id="&lt;Group&gt;">
								<path id="&lt;Path&gt;" class="s20" d="m43.9-5.7l6.2-5.2 0.1 5.2z"/>
								<path id="&lt;Path&gt;" class="s20" d="m42.2-7.9v-3.5h4.1z"/>
							</g>
							<path id="&lt;Path&gt;" class="s19" d="m60-22h1.5l-6.4 5.3h-1.4z"/>
							<path id="&lt;Path&gt;" class="s19" d="m48.5-11.3h1.5l-6.4 5.2h-1.4z"/>
						</g>
					</g>
				</g>
			</g>
			<path id="&lt;Path&gt;" class="s10" d="m42.2-22h19.2v15.9h-19.2z"/>
		</g>
		<path id="&lt;Path&gt;" class="s10" d="m51.8-6.2c-4.4 0-7.9-3.5-7.9-7.9 0-4.3 3.5-7.9 7.9-7.9 4.3 0 7.9 3.6 7.9 7.9 0 4.4-3.6 7.9-7.9 7.9z"/>
		<g id="&lt;Clip Group&gt;" clip-path="url(#cp8)">
			<g id="&lt;Group&gt;">
				<path id="&lt;Path&gt;" class="s21" d="m17.4-22.1h25.1v5.3h-25.1z"/>
				<path id="&lt;Path&gt;" class="s22" d="m17.4-16.8h25.1v5.3h-25.1z"/>
				<path id="&lt;Path&gt;" class="s23" d="m17.4-11.5h25.1v5.3h-25.1z"/>
			</g>
		</g>
		<g id="&lt;Clip Group&gt;" clip-path="url(#cp9)">
			<g id="&lt;Group&gt;">
				<path id="&lt;Path&gt;" class="s7" d="m65.7-23.1h15.8v18h-15.8z"/>
				<path id="&lt;Path&gt;" class="s24" d="m65.7-23.1h5.3v18h-5.3z"/>
				<path id="&lt;Path&gt;" class="s25" d="m76.3-23.1h5.2v18h-5.2z"/>
			</g>
		</g>
		<path id="&lt;Path&gt;" class="s10" d="m73.6-6.2c-4.4 0-7.9-3.5-7.9-7.9 0-4.4 3.5-7.9 7.9-7.9 4.4 0 7.9 3.5 7.9 7.9 0 4.4-3.5 7.9-7.9 7.9z"/>
		<g id="&lt;Clip Group&gt;" clip-path="url(#cp10)">
			<g id="&lt;Group&gt;">
				<path id="&lt;Path&gt;" class="s7" d="m24.4-44.9h12.2v17.1h-12.2z"/>
				<path id="&lt;Path&gt;" class="s26" d="m31.4-34.9l0.1 0.3-1.4-0.2c0 0-0.1 0-0.1 0.1l-0.1 1.6h-0.1v-1.6c-0.1-0.1-0.2-0.1-0.2-0.1l-1.4 0.2 0.1-0.3c0.1-0.2-0.1-0.3-0.1-0.3l-1.4-1.2c0 0 0.2-0.1 0.3-0.2 0.1 0 0.1-0.2 0.1-0.2l-0.3-0.9c0 0 0.4 0.1 0.7 0.1 0.3 0.1 0.3 0 0.3 0l0.2-0.4c0 0 0.5 0.8 0.7 0.9 0.2 0.1 0.1-0.3 0.1-0.3l-0.2-1.5c0 0 0.2 0.1 0.4 0.2 0.1 0.1 0.3-0.2 0.3-0.2l0.5-0.9 0.5 0.9c0 0 0.1 0.3 0.2 0.2 0.2-0.1 0.4-0.2 0.4-0.2l-0.2 1.5c0 0-0.1 0.4 0.1 0.3 0.2-0.1 0.8-0.9 0.8-0.9l0.1 0.4c0 0 0 0.1 0.3 0 0.3 0 0.7-0.1 0.7-0.1l-0.3 0.9c0 0 0 0.2 0.1 0.2 0.2 0.1 0.3 0.2 0.3 0.2l-1.4 1.2c0 0-0.2 0.1-0.1 0.3z"/>
				<path id="&lt;Path&gt;" class="s26" d="m21.9-44.9h4v17.1h-4z"/>
				<path id="&lt;Path&gt;" class="s26" d="m33.8-44.9h4v17.1h-4z"/>
			</g>
		</g>
		<path id="&lt;Path&gt;" class="s10" d="m29.8-28.5c-4.3 0-7.8-3.5-7.8-7.8 0-4.3 3.5-7.8 7.8-7.8 4.4 0 7.9 3.5 7.9 7.8 0 4.3-3.5 7.8-7.9 7.8z"/>
		<g id="&lt;Clip Group&gt;" clip-path="url(#cp11)">
			<g id="&lt;Group&gt;">
				<path id="&lt;Path&gt;" class="s27" d="m-4.2-44.2h25v15.9h-25z"/>
				<g id="&lt;Group&gt;">
					<path id="&lt;Path&gt;" class="s3" d="m-3.5-43.4h11.1v7.3h-11.1z"/>
					<g id="&lt;Group&gt;">
						<path id="&lt;Path&gt;" class="s28" d="m7.6-39h-5v2.9h-1.1v-2.9h-5v-1.5h5v-2.9h1.1v2.9h5z"/>
						<g id="&lt;Group&gt;">
							<path id="&lt;Path&gt;" class="s27" d="m1.1-43.4v2.2l-3.4-2.2z"/>
							<path id="&lt;Path&gt;" class="s27" d="m-1.1-41h-2.4v-1.5z"/>
							<path id="&lt;Path&gt;" class="s28" d="m0.2-41h-0.9l-2.8-1.8v-0.6z"/>
						</g>
						<g id="&lt;Group&gt;">
							<path id="&lt;Path&gt;" class="s27" d="m6.3-43.4l-3.3 2.2v-2.2z"/>
							<path id="&lt;Path&gt;" class="s27" d="m7.6-42.6v1.6h-2.4z"/>
						</g>
						<g id="&lt;Group&gt;">
							<path id="&lt;Path&gt;" class="s27" d="m3-35.9v-2.4l3.7 2.4z"/>
							<path id="&lt;Path&gt;" class="s27" d="m5.2-38.5h2.5v1.6z"/>
							<path id="&lt;Path&gt;" class="s28" d="m3.9-38.5h0.8l2.9 1.8v0.6z"/>
						</g>
						<g id="&lt;Group&gt;">
							<path id="&lt;Path&gt;" class="s27" d="m-2.5-36l3.6-2.3v2.4z"/>
							<path id="&lt;Path&gt;" class="s27" d="m-3.5-37v-1.5h2.4z"/>
						</g>
						<path id="&lt;Path&gt;" class="s28" d="m6.7-43.4h0.9l-3.7 2.4h-0.8z"/>
						<path id="&lt;Path&gt;" class="s28" d="m0.2-38.5h0.8l-3.6 2.4h-0.9z"/>
					</g>
				</g>
				<g id="&lt;Group&gt;">
					<path id="&lt;Path&gt;" class="s3" d="m11-37.8l0.2-0.6 0.2 0.7 0.5-0.3-0.3 0.5 0.5 0.3-0.6 0.1 0.1 0.6-0.4-0.5-0.4 0.5 0.1-0.7h-0.7l0.6-0.3-0.4-0.5z"/>
					<path id="&lt;Path&gt;" class="s3" d="m13.5-40.9l0.2-0.6 0.2 0.6 0.5-0.2-0.3 0.5 0.5 0.2-0.6 0.1 0.1 0.6-0.4-0.4-0.4 0.4 0.1-0.6-0.7-0.1 0.6-0.2-0.4-0.5z"/>
					<path id="&lt;Path&gt;" class="s3" d="m16-38l0.2-0.6 0.2 0.6 0.5-0.2-0.4 0.5 0.6 0.3h-0.6l0.1 0.6-0.4-0.4-0.4 0.4 0.1-0.6h-0.7l0.6-0.3-0.4-0.5z"/>
					<path id="&lt;Path&gt;" class="s3" d="m13.5-31.8l0.2-0.6 0.1 0.6 0.6-0.2-0.4 0.5 0.6 0.2-0.6 0.1 0.1 0.6-0.4-0.4-0.5 0.4 0.2-0.6h-0.7l0.6-0.3-0.4-0.5z"/>
					<path id="&lt;Path&gt;" class="s3" d="m15.1-35.7l0.1-0.3 0.2 0.3h0.4l-0.3 0.3 0.1 0.3-0.4-0.2-0.3 0.2 0.1-0.3-0.3-0.3z"/>
				</g>
				<path id="&lt;Path&gt;" class="s3" d="m2-33l0.3-1 0.4 1.1 0.9-0.5-0.6 0.9 0.9 0.5-1 0.1 0.2 1.1-0.8-0.8-0.7 0.8 0.2-1.1-1.1-0.1 1-0.5-0.7-0.9z"/>
			</g>
		</g>
		<g id="&lt;Clip Group&gt;" clip-path="url(#cp12)">
			<g id="&lt;Group&gt;">
				<path id="&lt;Path&gt;" class="s29" d="m-0.8-22.7h17.8v17.1h-17.8z"/>
				<path id="&lt;Path&gt;" class="s3" d="m8.2-15.4l0.7 0.8 1-0.4-0.6 0.9 0.6 0.9-1-0.3-0.6 0.9v-1.1l-1.1-0.3 1.1-0.4z"/>
				<path id="&lt;Path&gt;" class="s3" d="m7.1-12.3c-0.6 0.7-1.4 1.2-2.4 1.2-1.7 0-3-1.3-3-2.9 0-1.6 1.3-3 3-3 0.9 0 1.8 0.5 2.3 1.2-0.4-0.3-1-0.6-1.6-0.6-1.3 0-2.3 1.1-2.3 2.4 0 1.3 1 2.3 2.3 2.3 0.7 0 1.3-0.2 1.7-0.6z"/>
			</g>
		</g>
	</g>
</svg>