<svg width="16" height="16" viewBox="0 0 16 16" fill="none" xmlns="http://www.w3.org/2000/svg">
<mask id="mask0_702_3946" style="mask-type:alpha" maskUnits="userSpaceOnUse" x="0" y="0" width="16" height="16">
<circle cx="8" cy="8" r="8" fill="#D9D9D9"/>
</mask>
<g mask="url(#mask0_702_3946)">
<path d="M1.46154 0C0.102154 0 -1 1.10215 -1 2.46154V13.5385C-1 14.8978 0.102154 16 1.46154 16H5.76923V0H1.46154Z" fill="#006847"/>
<path d="M14.6905 0H10.3828V16H14.6905C16.0499 16 17.152 14.8978 17.152 13.5385V2.46154C17.152 1.10215 16.0499 0 14.6905 0Z" fill="#CE1126"/>
<path d="M5 0H11V16H5V0Z" fill="#EEEEEE"/>
<path d="M9.62015 8.14648C9.62015 8.99956 8.92892 9.6908 8.07584 9.6908C7.22306 9.6908 6.53152 8.99956 6.53152 8.14648H6.22266C6.22266 9.16975 7.05226 9.99966 8.07584 9.99966C9.09941 9.99966 9.92902 9.16975 9.92902 8.14648H9.62015Z" fill="#A6D388"/>
<path d="M6.69957 8.84753C6.67115 8.79194 6.6137 8.76105 6.55502 8.76383C6.53371 8.76445 6.51178 8.77001 6.4917 8.7802C6.41541 8.81881 6.38546 8.91208 6.42406 8.98806C6.45186 9.04273 6.48244 9.09617 6.51549 9.14744V9.14775L6.51672 9.1496V9.14991L6.51919 9.15331V9.15362L6.52012 9.15547L6.52043 9.15609L6.52166 9.15763V9.15794L6.52259 9.15948V9.1601L6.52352 9.16165L6.52383 9.16226L6.52475 9.16381L6.52506 9.16443L6.52599 9.16566L6.52661 9.16659L6.52722 9.16751L6.52753 9.16844L6.52846 9.16998L6.52877 9.17029L6.52939 9.17122L6.53031 9.17307L6.53062 9.17369L6.53155 9.17524L6.53186 9.17585L6.53402 9.17894V9.17925L6.53556 9.18141V9.18172C6.55162 9.2055 6.56799 9.22836 6.58529 9.25152C6.61679 9.29415 6.66621 9.31515 6.71532 9.3133C6.74497 9.31206 6.77493 9.30218 6.80057 9.28272C6.86913 9.23207 6.88334 9.13508 6.83238 9.06682C6.78358 8.99702 6.73818 8.92351 6.69957 8.84753V8.84753ZM6.54606 8.35891C6.53958 8.31073 6.53494 8.26162 6.53278 8.21158C6.53124 8.17452 6.53124 8.13807 6.53186 8.10163C6.53433 8.01669 6.4673 7.94534 6.38206 7.94287L6.37094 7.94318C6.29063 7.94658 6.22546 8.01144 6.2233 8.09298C6.22268 8.1251 6.22238 8.15691 6.22299 8.18903V8.21683L6.2233 8.21838V8.22703L6.22361 8.22795L6.2233 8.22857V8.2295L6.22361 8.23011V8.23907L6.22392 8.24V8.24339L6.22423 8.24926L6.22454 8.25204V8.25544C6.22732 8.30486 6.23226 8.35397 6.23874 8.40277C6.24986 8.48215 6.31936 8.53867 6.39781 8.53558C6.40275 8.53527 6.40769 8.53496 6.41233 8.53404C6.49912 8.52168 6.5578 8.44354 6.54606 8.35891V8.35891ZM8.18119 9.68702L8.17933 9.68733L8.14103 9.6898C8.06783 9.69258 7.99371 9.69073 7.92174 9.68332C7.91433 9.68239 7.90722 9.68239 7.89981 9.6827C7.82414 9.68579 7.76051 9.74447 7.75279 9.82169C7.74445 9.90632 7.80623 9.98199 7.89085 9.99063L7.92946 9.99403L7.9307 9.99434L7.93132 9.99403L7.93224 9.99434H7.93286L7.93471 9.99465H7.93657L7.93749 9.99496H7.9378L7.93966 9.99465L7.94058 9.99496H7.94213L7.94398 9.99527L7.94552 9.99558H7.94954L7.95139 9.99589H7.95541C8.00235 9.99897 8.04961 10.0005 8.09718 9.99959H8.10922L8.11138 9.99928L8.11324 9.99959H8.11787L8.11941 9.99928H8.12528L8.12714 9.99897H8.12744L8.12899 9.99928L8.1293 9.99897L8.13115 9.99928H8.13146L8.133 9.99897H8.13547L8.13733 9.99867H8.13918L8.13949 9.99897L8.14134 9.99867H8.1435L8.14505 9.99836H8.15123L8.15277 9.99805H8.15401L8.15524 9.99774L8.15648 9.99805H8.15802L8.15926 9.99774H8.1608C8.17377 9.99743 8.18705 9.99619 8.20003 9.99558C8.28311 9.98878 8.3455 9.91682 8.33994 9.83311C8.33778 9.7491 8.2652 9.68393 8.18119 9.68702V9.68702ZM7.42787 9.54865C7.35034 9.51282 7.27498 9.46989 7.20425 9.42171C7.17584 9.40194 7.14279 9.3936 7.11067 9.39484C7.06372 9.39669 7.01801 9.41955 6.98928 9.46186C6.94141 9.53197 6.95901 9.62834 7.02943 9.67621L7.02974 9.67652L7.0316 9.67745L7.03345 9.6793L7.0353 9.68054L7.03716 9.68208C7.11931 9.73798 7.20641 9.78709 7.29722 9.8291C7.32008 9.83991 7.34448 9.84423 7.36826 9.84331C7.42447 9.84084 7.47698 9.80841 7.502 9.75405C7.53875 9.67652 7.50508 9.58448 7.42787 9.54865V9.54865ZM8.98145 9.42572C8.9552 9.42696 8.92864 9.43499 8.90485 9.45043C8.83289 9.49614 8.75629 9.53661 8.67815 9.56996C8.59939 9.6027 8.56232 9.6932 8.59568 9.77227C8.62162 9.83311 8.68185 9.86863 8.74394 9.86647C8.76216 9.86585 8.77976 9.86153 8.79737 9.85473L8.83876 9.8362H8.83937L8.84123 9.83497L8.84184 9.83466L8.84308 9.83404H8.84432L8.84555 9.83342L8.84617 9.83281L8.84802 9.8325L8.84864 9.83188L8.84957 9.83126L8.85111 9.83064L8.85204 9.83033L8.85358 9.82972L8.8542 9.82941L8.85574 9.82879L8.85636 9.82848C8.85729 9.82786 8.85729 9.82755 8.85791 9.82755L8.85852 9.82725L8.86038 9.82632H8.86099L8.86285 9.82539L8.8647 9.82447L8.86532 9.82416L8.86686 9.82323L8.86748 9.82292L8.86933 9.822L8.86964 9.82169L8.8718 9.82138L8.87397 9.82014L8.87458 9.81983L8.87582 9.81891H8.87644L8.87829 9.81767L8.88076 9.81705L8.88261 9.81582H8.88292L8.88509 9.81458L8.88539 9.81427L8.88972 9.81242L8.89188 9.81149L8.8962 9.80902L8.89868 9.8081L8.90053 9.80717H8.90084L8.90516 9.8047V9.80439L8.90702 9.80377H8.90732L8.91412 9.80007L8.91628 9.79945L8.9206 9.79698L8.92277 9.79574H8.92308C8.92338 9.79543 8.924 9.79512 8.92524 9.79512C8.92586 9.7942 8.92647 9.79389 8.92709 9.79358L8.92956 9.79234L8.93141 9.79142V9.79111L8.93574 9.78926H8.93605L8.93821 9.78802L8.93852 9.78771L8.94006 9.78678H8.94037L8.94253 9.78555L8.94439 9.78462H8.945L8.94686 9.78339V9.78308L8.94902 9.78215L8.94933 9.78184L8.95118 9.78092V9.78061L8.95304 9.77999L8.95365 9.77968L8.95489 9.77875L8.95582 9.77845L8.95736 9.77752L8.95798 9.77721L8.95952 9.77628L8.96014 9.77597L8.96199 9.77536C8.96168 9.77505 8.96199 9.77505 8.9623 9.77505L8.96415 9.77412L8.96477 9.77381L8.96601 9.77289L8.96663 9.77258L8.96848 9.77165L8.9691 9.77134C8.9691 9.77072 8.96971 9.77072 8.97033 9.77042L8.97126 9.77011L8.97249 9.76949L8.97342 9.76887L8.97466 9.76825L8.97558 9.76764L8.97651 9.76702L8.97744 9.76609L8.97898 9.76578L8.98022 9.76547L8.98083 9.76486L8.98207 9.76424L8.9833 9.76331L8.98392 9.763L8.98516 9.76238L8.98639 9.76146L8.98732 9.76084C8.98794 9.76115 8.98825 9.76084 8.98886 9.76053L8.98948 9.75991L8.99072 9.7593L8.99164 9.75868L8.99257 9.75806L8.99381 9.75744L8.99504 9.75652L8.99566 9.75621C8.99628 9.7559 8.99751 9.7559 8.99813 9.75528C8.99751 9.75497 8.99751 9.75497 8.99813 9.75497L8.99937 9.75435L9.00153 9.75281L9.00214 9.7525L9.00431 9.75157V9.75127L9.00801 9.74941L9.01048 9.74787C9.01234 9.74663 9.01419 9.7454 9.01666 9.74447H9.01697C9.03643 9.73273 9.0565 9.72069 9.07565 9.70833C9.14731 9.662 9.16862 9.56718 9.1226 9.49522C9.08708 9.4492 9.03458 9.42356 8.98145 9.42572V9.42572ZM9.77554 7.99939L9.76813 7.9997C9.68597 8.0031 9.62049 8.07043 9.62018 8.15352C9.62018 8.23907 9.61246 8.32555 9.59794 8.40956C9.58343 8.49327 9.64026 8.57357 9.72396 8.58778C9.73508 8.58963 9.74589 8.59056 9.7567 8.59025C9.82774 8.58716 9.89013 8.53496 9.90279 8.46145V8.45991L9.9031 8.45929L9.90341 8.45867L9.9031 8.45805L9.90341 8.45744V8.45682L9.90372 8.4562V8.45528L9.90403 8.45466V8.45188C9.90464 8.45157 9.90464 8.45095 9.90464 8.45064V8.44879C9.91113 8.40895 9.91669 8.36879 9.9207 8.32802L9.9204 8.32771L9.9207 8.32679V8.32648L9.92101 8.32524V8.32185L9.92163 8.32092V8.32061L9.92132 8.31968V8.31907L9.92163 8.31814V8.3169L9.92225 8.3166L9.92163 8.31567V8.31443C9.92225 8.31412 9.92225 8.31382 9.92225 8.31351V8.30764L9.92287 8.30671V8.3064C9.92688 8.25606 9.92935 8.2051 9.92935 8.15352C9.92935 8.0692 9.86078 7.9997 9.77554 7.99939V7.99939ZM9.63871 8.83209C9.61277 8.81788 9.58466 8.8117 9.55748 8.81294C9.50528 8.8151 9.45586 8.84383 9.42868 8.89263C9.3873 8.96737 9.33942 9.03964 9.28568 9.10636C9.23256 9.17338 9.24398 9.27037 9.31039 9.32318C9.34128 9.34758 9.37741 9.35808 9.41324 9.35654C9.45648 9.35469 9.49849 9.33492 9.52752 9.29847C9.56335 9.25338 9.59763 9.20612 9.62945 9.15794C9.63006 9.15578 9.63161 9.15362 9.63284 9.15176L9.63315 9.15145L9.63439 9.1496V9.14929L9.63562 9.14713C9.63624 9.14651 9.63686 9.14589 9.63686 9.14528L9.63717 9.14558L9.6384 9.14373V9.14342C9.63902 9.1428 9.63933 9.14188 9.63933 9.14126L9.63995 9.14095L9.64118 9.1391V9.13879C9.6418 9.13848 9.6418 9.13786 9.64211 9.13725L9.64242 9.13694L9.64365 9.13508L9.64396 9.13447L9.64458 9.13292L9.64551 9.1323L9.64612 9.13076H9.64674L9.64736 9.12891L9.64767 9.12829L9.6489 9.12705L9.64921 9.12644C9.64952 9.12582 9.64952 9.1252 9.65014 9.12489L9.65045 9.12396L9.65168 9.12304C9.65168 9.12273 9.65168 9.12242 9.6523 9.12211V9.12088L9.65323 9.12026L9.65415 9.11871L9.65446 9.1181L9.65539 9.11624L9.65601 9.11562L9.65663 9.11439L9.65724 9.11346C9.65724 9.11315 9.65724 9.11285 9.65786 9.11254C9.65786 9.11223 9.65786 9.11192 9.65848 9.11161L9.65941 9.11007L9.65971 9.10914L9.66033 9.10821L9.66095 9.10729C9.66157 9.10698 9.66157 9.10667 9.66157 9.10636C9.66219 9.10605 9.66219 9.10574 9.66219 9.10512L9.6628 9.1042L9.66373 9.10296L9.66466 9.10173V9.1008L9.66527 9.09987L9.6662 9.09864L9.66713 9.09771V9.09678L9.66836 9.09524V9.09431C9.66898 9.094 9.66929 9.0937 9.66929 9.09308L9.66991 9.09246L9.67053 9.09153L9.67145 9.08999L9.67207 9.08906V9.08844L9.6733 9.0869C9.6733 9.08659 9.6733 9.08628 9.67392 9.08597L9.67423 9.08505L9.67516 9.08381L9.67578 9.08258L9.67639 9.08165C9.6767 9.08134 9.67639 9.08072 9.67701 9.08041C9.67701 9.08011 9.67701 9.0798 9.67763 9.0798L9.67825 9.07825L9.67886 9.07763L9.67948 9.07578L9.6801 9.07547L9.68072 9.07424L9.68134 9.07362L9.68195 9.07208L9.68257 9.07146L9.68319 9.0696C9.68381 9.0693 9.68319 9.06899 9.68319 9.06899L9.68442 9.06744L9.68473 9.06682L9.68597 9.06528V9.06497L9.68689 9.06312L9.68751 9.0625L9.68813 9.06065V9.06034L9.68967 9.05879L9.6906 9.05694V9.05663L9.69184 9.05447L9.69245 9.05416L9.70018 9.03964C9.74002 8.96737 9.71346 8.87348 9.63871 8.83209V8.83209Z" fill="#5C913B"/>
<path d="M8.07503 9.3814C8.58677 9.3814 9.00162 9.24312 9.00162 9.07254C9.00162 8.90195 8.58677 8.76367 8.07503 8.76367C7.56329 8.76367 7.14844 8.90195 7.14844 9.07254C7.14844 9.24312 7.56329 9.3814 8.07503 9.3814Z" fill="#55ACEE"/>
<path d="M8.23283 9.3814C8.4887 9.3814 8.69612 9.24312 8.69612 9.07254C8.69612 8.90195 8.4887 8.76367 8.23283 8.76367C7.97696 8.76367 7.76953 8.90195 7.76953 9.07254C7.76953 9.24312 7.97696 9.3814 8.23283 9.3814Z" fill="#FFCC4D"/>
<path d="M8.42258 9.15586C8.39756 9.15586 8.37223 9.14968 8.34876 9.13702C8.27371 9.09625 8.24591 9.00235 8.28668 8.92761C8.3361 8.8368 8.38799 8.75434 8.44173 8.68206C8.3988 8.68392 8.35432 8.68484 8.30892 8.68484C8.22367 8.68484 8.14584 8.61535 8.14584 8.5301C8.14584 8.44486 8.20607 8.37567 8.29162 8.37567L8.31695 8.37598C8.40837 8.37598 8.50227 8.37042 8.58628 8.3627C8.63508 8.35745 8.68172 8.37721 8.71291 8.41088C8.71723 8.40748 8.72156 8.40409 8.72619 8.40131C8.75708 8.38092 8.7858 8.36455 8.81267 8.35158C8.8309 8.33737 8.85313 8.32718 8.87784 8.32255L8.88896 8.32038C8.94703 8.30154 8.9878 8.29907 9.00417 8.29907C9.05328 8.29907 9.0993 8.32224 9.12833 8.36177C9.15737 8.40131 9.16601 8.45196 9.1515 8.49891C9.12617 8.58106 9.06965 8.5996 8.9705 8.61936C8.95197 8.62647 8.92664 8.63882 8.89699 8.6589C8.83893 8.69689 8.76356 8.69102 8.71198 8.6484C8.7543 8.70307 8.75615 8.78152 8.71137 8.83804C8.65886 8.90506 8.60728 8.98475 8.55817 9.07525C8.53037 9.12683 8.47725 9.15586 8.42258 9.15586V9.15586ZM7.98399 8.66507C7.97751 8.66507 7.9704 8.66477 7.96361 8.66384C7.84809 8.6484 7.73845 8.62554 7.63745 8.59558C7.5556 8.57118 7.50896 8.48532 7.53336 8.40347L7.53522 8.39729L7.53151 8.40439C7.48981 8.47883 7.39561 8.5057 7.32117 8.4637C7.21616 8.40501 7.12196 8.33428 7.04103 8.25336C6.98081 8.19313 6.98081 8.09522 7.04103 8.03499C7.10126 7.97477 7.19917 7.97477 7.2594 8.03499C7.32025 8.09584 7.39159 8.14927 7.4719 8.19406C7.53799 8.23112 7.56641 8.30957 7.54263 8.37845C7.57506 8.31266 7.65197 8.27776 7.72486 8.29938C7.8101 8.32471 7.90369 8.34417 8.00283 8.35745C8.08746 8.36857 8.14707 8.44609 8.13595 8.53072C8.127 8.60855 8.06028 8.66507 7.98399 8.66507V8.66507ZM7.22666 7.94264C7.09509 7.94264 6.9249 7.89168 6.82174 7.76999C6.6636 7.58344 6.57064 7.34407 6.58484 7.1606C6.58855 7.11149 6.54068 7.07196 6.49373 7.0596C6.46686 7.0525 6.4196 7.04818 6.39736 7.09605C6.37914 7.13497 6.33343 7.15134 6.29482 7.13373C6.25621 7.11582 6.23922 7.0698 6.25714 7.03119C6.30532 6.92648 6.41342 6.87985 6.53265 6.91011C6.64322 6.93884 6.74916 7.03829 6.73866 7.17265C6.72754 7.31534 6.80846 7.51518 6.93942 7.66992C7.00829 7.75146 7.12813 7.78451 7.20967 7.78759C7.27608 7.79099 7.30975 7.77586 7.31685 7.76937C7.29955 7.72829 7.07068 7.60784 6.97308 7.55656C6.89 7.51301 6.86529 7.4531 6.85911 7.41078C6.83842 7.27025 6.98266 7.12786 7.12226 6.99073C7.17137 6.94224 7.21801 6.89652 7.24334 6.86286C7.27206 6.82487 7.26743 6.79954 7.26187 6.78379C7.24056 6.72603 7.14821 6.66889 7.03702 6.64418C6.93417 6.62133 6.86467 6.5716 6.8307 6.49624C6.78591 6.39709 6.8097 6.26737 6.90297 6.09935C6.92367 6.06167 6.97092 6.04869 7.00799 6.06939C7.04536 6.09008 7.05864 6.13703 7.03795 6.1744C6.94992 6.33254 6.95857 6.4042 6.97154 6.43292C6.98451 6.46134 7.01756 6.48141 7.07038 6.49315C7.20103 6.52218 7.35824 6.59971 7.40642 6.73005C7.43391 6.80448 7.42001 6.88479 7.36688 6.95552C7.33476 6.99845 7.28411 7.04818 7.23068 7.10099C7.15099 7.17944 7.00243 7.32553 7.012 7.38854C7.01385 7.40152 7.03084 7.41294 7.04505 7.42005C7.27701 7.54174 7.43113 7.62976 7.46263 7.73756C7.47375 7.77555 7.46912 7.81385 7.44966 7.84844C7.4197 7.90064 7.35731 7.93276 7.26898 7.94079C7.25569 7.94203 7.24118 7.94264 7.22666 7.94264V7.94264Z" fill="#5C913B"/>
<path d="M8.54115 8.45562C8.62644 8.45562 8.69558 8.31733 8.69558 8.14675C8.69558 7.97617 8.62644 7.83789 8.54115 7.83789C8.45586 7.83789 8.38672 7.97617 8.38672 8.14675C8.38672 8.31733 8.45586 8.45562 8.54115 8.45562Z" fill="#FFCC4D"/>
<path d="M7.85779 7.89558C7.85779 7.98453 7.75123 8.0565 7.61966 8.0565C7.48839 8.0565 7.38152 7.98453 7.38152 7.89558C7.38152 7.80663 7.48808 7.73466 7.61966 7.73466C7.75092 7.73466 7.85779 7.80663 7.85779 7.89558ZM7.49117 6.46647C7.50661 6.53195 7.42106 6.60855 7.29998 6.63727C7.17891 6.666 7.06833 6.63604 7.05258 6.57056C7.03714 6.50477 7.12269 6.42817 7.24346 6.39945C7.36484 6.37103 7.47573 6.40068 7.49117 6.46647V6.46647Z" fill="#FFCC4D"/>
<path d="M9.47816 8.13214C9.50596 8.15376 9.55321 7.90698 9.54611 7.83007C9.54611 7.82482 9.53715 7.66143 9.57175 7.54468C9.59306 7.50515 9.59429 7.21018 9.56155 7.13266C9.5875 7.1305 9.61869 7.12216 9.6224 7.09065C9.50256 7.13482 9.47445 6.83831 9.35925 6.66782C9.24744 6.49702 9.10876 6.39756 8.9639 6.29378C8.97471 6.26475 8.99201 6.23757 9.01394 6.21039C8.83634 6.29934 8.5596 5.9772 8.15067 6.00129C8.05893 6.01025 8.01538 6.01581 7.99191 6.07202C7.91562 6.0782 7.8381 6.09549 7.8381 6.19587C7.8381 6.21997 7.86003 6.26382 7.90883 6.26413C7.97554 6.28359 8.0299 6.26846 8.0753 6.36173L8.08735 6.4581C8.08735 6.4581 8.02774 6.38181 7.995 6.36976L8.01508 6.32869C7.98419 6.31077 7.92952 6.32529 7.92952 6.32529C7.92952 6.32529 7.81061 6.26969 7.71517 6.28452L7.69664 6.2073C7.67996 6.25487 7.64259 6.2524 7.63734 6.29718C7.62683 6.26506 7.61294 6.22522 7.60305 6.1931C7.56939 6.23881 7.57927 6.28823 7.56722 6.33579C7.55425 6.34691 7.52769 6.34722 7.52089 6.31664C7.5175 6.27896 7.51286 6.27556 7.51286 6.23078C7.48877 6.27309 7.45974 6.29378 7.45016 6.36637L7.42453 6.28606C7.42546 6.38088 7.34392 6.43741 7.2667 6.50443C7.24477 6.54458 7.2701 6.54489 7.27195 6.56558L7.31272 6.58597L7.38592 6.58072C7.39797 6.59585 7.38808 6.59709 7.4199 6.60666C7.50514 6.63045 7.61139 6.52821 7.69478 6.68913C7.65649 6.72125 7.61788 6.79631 7.63023 6.81051C7.64567 6.81051 7.59935 6.83213 7.66174 6.81237C7.59687 6.87537 7.55302 6.95846 7.55302 6.9634C7.5456 6.98131 7.57896 6.96093 7.57217 6.99336L7.58761 6.99151C7.43966 7.1515 7.58267 7.32353 7.56691 7.41588C7.59162 7.45573 7.59471 7.41496 7.6256 7.41094C7.65154 7.5246 7.72629 7.59348 7.772 7.68336L7.67563 7.68429C7.6778 7.72691 7.7164 7.76737 7.74698 7.80474L7.68243 7.82513C7.63641 7.8486 7.60614 7.87362 7.57371 7.90976C7.5524 7.96165 7.67656 7.974 7.73648 7.98327L7.73432 8.04597C7.8279 8.05492 7.93601 8.02713 7.93601 8.02187L7.95948 8.00365L8.0123 8.03268C8.0299 8.03268 8.05739 7.96226 8.04473 7.90821C8.0787 7.94867 8.11082 8.01384 8.1448 8.05461L8.17661 8.05029C8.20564 8.09631 8.24549 8.14202 8.27452 8.18804L8.30695 8.2004C8.32579 8.19391 8.34185 8.19175 8.35204 8.15469L8.36687 8.18063L8.41814 8.14542L8.45397 8.13832L8.48084 8.18217C8.49659 8.17631 8.51204 8.14202 8.51296 8.10558C8.52902 8.13739 8.53335 8.13492 8.54508 8.14326L8.56887 8.09322L8.69705 8.21306L8.79403 8.21862C8.82862 8.24209 8.92344 8.25692 8.9395 8.21893C9.01734 8.25229 9.10907 8.21461 9.10444 8.17754C9.17609 8.20596 9.28636 8.18681 9.28636 8.18217C9.29964 8.18063 9.33361 8.14727 9.30149 8.12226C9.06459 7.95732 8.71342 7.68429 8.57782 7.6185C8.57782 7.5697 8.54107 7.39396 8.50153 7.34577L8.53366 7.29203C8.62601 7.3782 8.65936 7.36986 8.70847 7.38345C8.76098 7.42515 8.7792 7.48847 8.83171 7.54623L8.87866 7.55487C8.84623 7.47241 8.80577 7.39241 8.70755 7.28524C8.7582 7.31056 8.84221 7.3782 8.89842 7.42731C8.93549 7.48939 8.9463 7.53881 8.98027 7.61665C9.00498 7.6324 9.03031 7.69016 9.02691 7.64228C9.02104 7.5524 8.95773 7.41002 8.95773 7.39982C9.05842 7.47951 9.05718 7.60367 9.08776 7.67935C9.11339 7.71764 9.12637 7.76892 9.13748 7.75687L9.10783 7.52337L9.09054 7.43781C9.16497 7.48075 9.19154 7.64444 9.22644 7.84088C9.22644 7.87208 9.2391 7.90636 9.23725 7.92644C9.25331 7.9462 9.27153 8.00087 9.27122 7.96844C9.27122 7.96844 9.27122 7.64908 9.24929 7.57588C9.24373 7.53665 9.25856 7.47302 9.25856 7.47302C9.28574 7.60553 9.31477 7.74915 9.34226 7.88134V7.97863L9.38303 8.01971C9.39075 7.93941 9.40002 7.85972 9.40805 7.78003L9.37747 7.49434V7.4128C9.37685 7.38407 9.40372 7.38932 9.42071 7.42206C9.42473 7.49217 9.42473 7.54684 9.42751 7.61665C9.43955 7.69633 9.44789 7.75471 9.45376 7.85632C9.45716 7.93848 9.46086 8.13554 9.47816 8.13214V8.13214Z" fill="#C1694F"/>
</g>
<path opacity="0.4" d="M8 16C12.4183 16 16 12.4183 16 8C16 3.58172 12.4183 0 8 0C3.58172 0 0 3.58172 0 8C0 12.4183 3.58172 16 8 16Z" fill="url(#paint0_radial_702_3946)"/>
<path d="M3.03906 4.31996C3.03906 2.46396 5.2597 0.959961 7.99874 0.959961C10.7381 0.959961 12.9589 2.46396 12.9589 4.31996C12.9589 6.17564 10.7381 7.67996 7.99874 7.67996C5.2597 7.67996 3.03906 6.17564 3.03906 4.31996Z" fill="url(#paint1_linear_702_3946)"/>
<path d="M7.99796 12.0647C11.1802 12.0647 13.7581 11.0122 13.7581 12.6244C13.7581 14.2365 11.1802 16.0001 7.99796 16.0001C4.81684 16.0001 2.23828 14.2367 2.23828 12.6244C2.23828 11.0119 4.81684 12.0647 7.99796 12.0647Z" fill="url(#paint2_linear_702_3946)"/>
<defs>
<radialGradient id="paint0_radial_702_3946" cx="0" cy="0" r="1" gradientUnits="userSpaceOnUse" gradientTransform="translate(8 8) rotate(180) scale(7.99998)">
<stop offset="0.6" stop-color="white" stop-opacity="0"/>
<stop offset="1" stop-opacity="0.5"/>
</radialGradient>
<linearGradient id="paint1_linear_702_3946" x1="7.99894" y1="7.67996" x2="7.99894" y2="0.959961" gradientUnits="userSpaceOnUse">
<stop stop-color="white" stop-opacity="0"/>
<stop offset="1" stop-color="white" stop-opacity="0.4"/>
</linearGradient>
<linearGradient id="paint2_linear_702_3946" x1="7.99821" y1="16" x2="7.99821" y2="11.727" gradientUnits="userSpaceOnUse">
<stop stop-color="white" stop-opacity="0.35"/>
<stop offset="0.85" stop-color="white" stop-opacity="0"/>
</linearGradient>
</defs>
</svg>
