<svg width="30" height="34" viewBox="0 0 30 34" fill="none" xmlns="http://www.w3.org/2000/svg">
<path d="M29.415 7.44265C29.1486 6.88569 28.7672 6.42155 28.3078 6.09549C27.8485 5.76944 27.327 5.59262 26.7942 5.58226H7.06084L6.16667 1.37778C6.07633 0.971914 5.87477 0.614916 5.59483 0.364931C5.31489 0.114947 4.97305 -0.0132958 4.625 0.00109108H1.54167C1.13279 0.00109108 0.740663 0.197096 0.451544 0.545987C0.162425 0.894878 0 1.36808 0 1.86148C0 2.35489 0.162425 2.82809 0.451544 3.17698C0.740663 3.52587 1.13279 3.72187 1.54167 3.72187H3.45333L7.70834 22.8095C7.79868 23.2154 8.00024 23.5723 8.28018 23.8223C8.56012 24.0723 8.90195 24.2006 9.25 24.1862H23.125C23.4097 24.1851 23.6886 24.089 23.9308 23.9084C24.173 23.7278 24.369 23.4698 24.4971 23.163L29.5538 10.9588C29.7729 10.4044 29.875 9.7932 29.8508 9.17967C29.8265 8.56614 29.6768 7.96938 29.415 7.44265Z" fill="#222A58"/>
<path d="M8.95602 33.4879C10.4969 33.4879 11.746 32.2385 11.746 30.6973C11.746 29.1561 10.4969 27.9067 8.95602 27.9067C7.41514 27.9067 6.16602 29.1561 6.16602 30.6973C6.16602 32.2385 7.41514 33.4879 8.95602 33.4879Z" fill="#222A58"/>
<path d="M24.374 33.4879C25.9149 33.4879 27.164 32.2385 27.164 30.6973C27.164 29.1561 25.9149 27.9067 24.374 27.9067C22.8331 27.9067 21.584 29.1561 21.584 30.6973C21.584 32.2385 22.8331 33.4879 24.374 33.4879Z" fill="#222A58"/>
</svg>
