<svg width="24" height="18" viewBox="0 0 24 18" fill="none" xmlns="http://www.w3.org/2000/svg">
<path d="M22.0222 17.7638H1.98967C1.66967 17.7513 1.58217 17.7101 1.42092 17.6276C0.730923 17.2763 0.520923 16.2101 1.10467 15.6263C1.33592 15.3951 1.65842 15.2726 1.98967 15.2601H22.0222C22.0547 15.2613 22.0872 15.2626 22.1197 15.2638C22.4384 15.3013 22.5222 15.3501 22.6759 15.4451C23.3147 15.8363 23.4522 16.8526 22.9072 17.3976C22.6759 17.6288 22.3534 17.7513 22.0222 17.7638ZM22.0222 10.2526H1.98967C1.13967 10.2188 0.460923 9.24258 0.874673 8.43133C1.05217 8.08133 1.40467 7.82508 1.79342 7.76383C1.88092 7.75008 1.90217 7.75133 1.98967 7.74758H22.0222C22.0547 7.74883 22.0872 7.75008 22.1197 7.75133C22.4384 7.79008 22.5222 7.83883 22.6759 7.93258C23.3134 8.32258 23.4597 9.33383 22.9072 9.88508C22.6759 10.1176 22.3534 10.2388 22.0222 10.2526ZM22.0222 2.74008H1.98967C1.66967 2.72758 1.58217 2.68508 1.42092 2.60383C0.730923 2.25133 0.520923 1.18633 1.10467 0.602577C1.33592 0.371327 1.65842 0.248828 1.98967 0.236328H22.0222C22.0547 0.237578 22.0872 0.238827 22.1197 0.240077C22.4384 0.277577 22.5222 0.326327 22.6759 0.420077C23.3109 0.810077 23.4622 1.81758 22.9072 2.37383C22.6759 2.60508 22.3534 2.72758 22.0222 2.74008Z" fill="#222A58"/>
</svg>
