<svg width="24" height="24" viewBox="0 0 24 24" fill="none" xmlns="http://www.w3.org/2000/svg">
<path d="M18.0544 8.25C18.4317 8.29425 18.7302 8.613 18.7452 8.997V19.4948C18.7377 20.6603 17.7372 21.7185 16.5252 21.7418C13.5162 21.7605 10.5064 21.7418 7.49741 21.7418C6.32141 21.7343 5.25866 20.73 5.25116 19.4948V8.997C5.26466 8.6385 5.53241 8.31225 5.88341 8.25675C6.27116 8.19525 6.67841 8.48625 6.74066 8.88C6.74891 8.93175 6.74816 8.94525 6.75041 8.997C6.75041 12.4988 6.72791 16.0005 6.75041 19.5023C6.75791 19.8893 7.08791 20.2343 7.48991 20.2425C10.4952 20.2613 13.5004 20.2613 16.5057 20.2425C16.8972 20.235 17.2429 19.8945 17.2459 19.4903V8.997C17.2602 8.63625 17.5257 8.31225 17.8782 8.25675C17.9899 8.23875 18.0177 8.2485 18.0544 8.25ZM13.5244 9.74775C13.6609 9.75975 13.6977 9.774 13.7697 9.804C14.0149 9.906 14.1972 10.146 14.2272 10.4123C14.2317 10.4498 14.2309 10.4588 14.2324 10.4963V16.494C14.2272 16.6658 14.2047 16.722 14.1582 16.8195C13.9369 17.2778 13.1959 17.385 12.8712 16.9275C12.7819 16.8015 12.7369 16.6478 12.7324 16.494V10.4963C12.7369 10.3598 12.7497 10.3215 12.7752 10.2488C12.8674 9.98475 13.1172 9.783 13.3984 9.7515C13.4794 9.7425 13.4982 9.747 13.5244 9.74775ZM10.5559 9.74775C10.6917 9.75975 10.7292 9.774 10.8004 9.804C11.0457 9.90525 11.2287 10.146 11.2587 10.4123C11.2624 10.4498 11.2624 10.4588 11.2632 10.4963V16.494C11.2587 16.6658 11.2354 16.722 11.1889 16.8195C10.9677 17.2778 10.2267 17.385 9.90191 16.9275C9.81266 16.8015 9.76841 16.6478 9.76391 16.494V10.4963C9.76766 10.3598 9.78041 10.3215 9.80591 10.2488C9.89816 9.98475 10.1479 9.783 10.4299 9.7515C10.5109 9.7425 10.5297 9.747 10.5559 9.74775ZM8.24966 5.2485V3C8.25341 2.86275 8.26616 2.82525 8.29166 2.75175C8.38391 2.48775 8.63366 2.28675 8.91566 2.2545C8.95241 2.25075 8.96216 2.25075 8.99891 2.25H14.9967C15.0109 2.25075 15.0244 2.25075 15.0387 2.2515C15.1752 2.26275 15.2127 2.27775 15.2839 2.307C15.5299 2.409 15.7114 2.649 15.7414 2.916C15.7459 2.95275 15.7452 2.9625 15.7467 3V5.2485H19.4944L19.5604 5.2515C19.6174 5.259 19.6324 5.259 19.6887 5.274C20.2459 5.42325 20.4252 6.327 19.8694 6.648C19.7659 6.70725 19.7082 6.73875 19.4944 6.74775H4.50116C4.44341 6.7455 4.42841 6.747 4.37066 6.7365C3.78341 6.633 3.54491 5.685 4.12616 5.349C4.23041 5.289 4.28816 5.25825 4.50116 5.2485H8.24966ZM14.2467 5.2485V3.74925H9.74891V5.2485H14.2467Z" fill="#9292A0"/>
</svg>
