<svg width="259" height="27" viewBox="0 0 259 27" fill="none" xmlns="http://www.w3.org/2000/svg">
<g clip-path="url(#clip0_227_1800)">
<path d="M23.7838 9.40376C23.7838 5.12023 20.5893 0.499512 13.6514 0.499512H6.81334H0.574219V26.3381H4.91665V18.4454H13.6514C20.6392 18.3954 23.7962 13.7248 23.7838 9.40376ZM4.87922 4.22107H13.614C14.3522 4.1663 15.0938 4.26393 15.7927 4.5079C16.4917 4.75187 17.1331 5.13698 17.6772 5.63933C18.2212 6.14169 18.6563 6.75057 18.9555 7.42821C19.2547 8.10584 19.4116 8.83778 19.4164 9.5786C19.4296 10.2694 19.3063 10.9559 19.0536 11.5989C18.8009 12.2418 18.4238 12.8285 17.9439 13.3251C17.3725 13.8814 16.6939 14.3155 15.9496 14.6011C15.2052 14.8866 14.4106 15.0176 13.614 14.9861H4.87922V4.22107Z" fill="#222A58"/>
<path d="M133.93 0.537109H111.207V4.03387H120.403V26.3882H124.733V4.03387H133.93V0.537109Z" fill="#222A58"/>
<path d="M151.774 0.537109H147.481V26.3882H151.774V0.537109Z" fill="#222A58"/>
<path d="M170.191 4.0835C168.968 5.35278 168.008 6.85125 167.366 8.49288C166.723 10.1345 166.411 11.887 166.447 13.6496C166.447 23.5155 174.458 27.0123 181.259 27.0123C184.952 27.1038 188.556 25.8776 191.429 23.553L188.534 20.818C186.453 22.4357 183.894 23.3145 181.259 23.3157C173.535 23.3157 170.74 18.0955 170.702 13.6122C170.652 11.001 171.639 8.47661 173.448 6.59367C174.488 5.60942 175.716 4.84463 177.058 4.34476C178.4 3.84488 179.828 3.62013 181.259 3.68387C183.789 3.63936 186.256 4.4685 188.247 6.03169L191.054 3.53401C188.322 1.20758 184.846 -0.059858 181.259 -0.0376877C179.232 -0.128158 177.208 0.190047 175.307 0.898016C173.405 1.60599 171.665 2.68927 170.191 4.0835Z" fill="#222A58"/>
<path d="M205.343 0.537109V26.3882H224.597V22.8165H209.685V0.537109H205.343Z" fill="#222A58"/>
<path d="M258.725 4.34608V0.537109H238.148V26.3882H258.725V22.5043H242.441V15.286H258.139V11.6768H242.441V4.34608H258.725Z" fill="#222A58"/>
<path d="M57.9493 26.3882H62.6536L50.1879 0.537109H44.9345L32.4688 26.3882H37.1481L37.1731 26.3132L47.5674 4.30862L47.792 4.79567L53.844 17.6962H45.7206L44.1234 21.3054H55.5036L57.9493 26.3882Z" fill="#222A58"/>
<path d="M181.011 10.9898C180.546 10.9873 180.092 11.1229 179.704 11.3794C179.317 11.6359 179.014 12.0017 178.835 12.4304C178.655 12.8592 178.607 13.3317 178.696 13.7879C178.785 14.2442 179.007 14.6637 179.335 14.9933C179.663 15.3229 180.081 15.5478 180.536 15.6394C180.991 15.731 181.464 15.6852 181.893 15.5079C182.323 15.3306 182.69 15.0296 182.948 14.6433C183.206 14.2569 183.344 13.8025 183.344 13.3376C183.344 12.7171 183.099 12.1218 182.662 11.6818C182.224 11.2419 181.631 10.9931 181.011 10.9898Z" fill="#222A58"/>
<path d="M100.087 26.3379L91.1655 16.984L92.1887 16.7967C98.1783 15.6603 99.0643 11.3393 99.0643 8.86656C99.0643 4.85777 95.9697 0.524282 89.194 0.486816H82.019H75.418V26.3379H79.7604V4.14593H89.194C93.0248 4.14593 94.7343 6.64362 94.7343 9.02891C94.7343 11.4142 93.0248 13.9119 89.194 13.9119H83.167L95.1087 26.4003L100.087 26.3379Z" fill="#222A58"/>
</g>
<defs>
<clipPath id="clip0_227_1800">
<rect width="258.188" height="27" fill="white" transform="translate(0.537109)"/>
</clipPath>
</defs>
</svg>
