<svg version="1.1" id="Layer_1" xmlns="http://www.w3.org/2000/svg" x="0px" y="0px" viewBox="0 0 10 10" style="enable-background:new 0 0 10 10;" xml:space="preserve">
<style type="text/css">.st0{fill:#fff;}</style><g><path class="st0" d="M5.21,0.03C5.07-0.03,4.9,0,4.8,0.11L1.88,2.99h-1.5C0.17,2.99,0,3.16,0,3.36v3.27C0,6.83,0.17,7,0.38,7h1.5
		L4.8,9.89C4.87,9.96,4.96,10,5.06,10c0.05,0,0.1-0.01,0.14-0.03c0.14-0.06,0.23-0.19,0.23-0.34V0.37C5.44,0.22,5.35,0.09,5.21,0.03
		z"></path><path class="st0" d="M6.72,7.05c-0.11,0-0.22-0.04-0.3-0.12c-0.16-0.16-0.17-0.43,0-0.59C6.78,5.98,6.98,5.51,6.98,5
		s-0.2-0.98-0.56-1.34c-0.16-0.16-0.16-0.43,0-0.59s0.43-0.16,0.6,0C7.54,3.58,7.83,4.27,7.83,5S7.54,6.41,7.02,6.93
		C6.94,7.01,6.83,7.05,6.72,7.05z"></path><path class="st0" d="M8.2,8.69c-0.23,0-0.42-0.19-0.42-0.42l0,0c0-0.11,0.04-0.22,0.12-0.29C8.71,7.18,9.16,6.12,9.16,5
		c0-1.13-0.44-2.18-1.25-2.98c-0.16-0.16-0.16-0.43,0-0.59s0.43-0.16,0.6,0C9.47,2.38,10,3.65,10,5c0,1.34-0.53,2.61-1.49,3.56
		C8.43,8.64,8.33,8.69,8.2,8.69z"></path></g></svg>
