<svg version="1.1" id="Layer_1" xmlns="http://www.w3.org/2000/svg" x="0px" y="0px" viewBox="0 0 10 10" style="enable-background:new 0 0 10 10;" xml:space="preserve">
  <style type="text/css">
    .st0 {
      fill: #fff;
    }
  </style>
  <g>
    <path class="st0" d="M4.97,0.19C4.84,0.13,4.69,0.17,4.58,0.27L1.79,3.06H0.36C0.16,3.06,0,3.22,0,3.42v3.17
		c0,0.2,0.16,0.36,0.36,0.36h1.44l2.79,2.79c0.07,0.07,0.16,0.1,0.25,0.1c0.05,0,0.09-0.01,0.14-0.03c0.13-0.06,0.22-0.19,0.22-0.33
		V0.52C5.19,0.38,5.11,0.25,4.97,0.19z" />
    <path class="st0" d="M8.59,4.99l1.3-1.29c0.16-0.16,0.16-0.41,0-0.57c-0.16-0.16-0.41-0.16-0.57,0l-1.3,1.29l-1.3-1.29
		c-0.16-0.16-0.41-0.16-0.57,0c-0.16,0.16-0.16,0.41,0,0.57l1.3,1.29l-1.3,1.29c-0.16,0.16-0.16,0.41,0,0.57
		c0.08,0.08,0.18,0.12,0.29,0.12c0.1,0,0.21-0.04,0.28-0.12l1.3-1.29l1.3,1.29C9.39,6.93,9.49,6.97,9.6,6.97
		c0.1,0,0.21-0.04,0.29-0.12c0.16-0.16,0.16-0.41,0-0.57L8.59,4.99z" />
  </g>
</svg>
